<svg xmlns="http://www.w3.org/2000/svg" xmlns:xlink="http://www.w3.org/1999/xlink" viewBox="0 0 235.84 276.69"><defs><style>.cls-1{isolation:isolate;}.cls-10,.cls-11,.cls-12,.cls-14,.cls-17,.cls-19,.cls-2,.cls-20,.cls-21,.cls-22,.cls-24,.cls-26,.cls-3,.cls-35,.cls-7,.cls-9{mix-blend-mode:multiply;}.cls-2{fill:url(#linear-gradient);}.cls-3,.cls-35{opacity:0.35;}.cls-4{font-size:60.44px;}.cls-35,.cls-4,.cls-5,.cls-7{fill:#54314a;}.cls-33,.cls-4{font-family:Roboto-Regular, Roboto;}.cls-6{fill:#351b2f;}.cls-14,.cls-17,.cls-19,.cls-24,.cls-26,.cls-34,.cls-7,.cls-9{opacity:0.5;}.cls-10,.cls-11,.cls-12,.cls-8,.cls-9{fill:#b2bd87;}.cls-10,.cls-21{opacity:0.8;}.cls-11{opacity:0.7;}.cls-12,.cls-31{opacity:0.3;}.cls-13{fill:#dbb295;}.cls-15,.cls-17{fill:#d3e5cd;}.cls-16,.cls-21,.cls-29,.cls-30{fill:none;stroke-linecap:round;}.cls-16{stroke:#beccba;}.cls-16,.cls-21,.cls-29{stroke-linejoin:round;}.cls-16,.cls-29{stroke-width:0.41px;}.cls-18,.cls-19,.cls-20,.cls-22{fill:#818f49;}.cls-20{opacity:0.25;}.cls-21{stroke:#8d9e5a;stroke-width:0.21px;}.cls-23,.cls-24{fill:#3c3f31;}.cls-25,.cls-26{fill:#527022;}.cls-27{fill:#423940;}.cls-28{fill:#6d2c20;}.cls-29{stroke:#c49a7f;}.cls-30{stroke:#423940;stroke-miterlimit:10;stroke-width:0.82px;}.cls-31,.cls-34{mix-blend-mode:overlay;}.cls-32{fill:#fff;}.cls-33{font-size:57.56px;fill:#5f0a87;}.cls-34{fill:url(#linear-gradient-2);}</style><linearGradient id="linear-gradient" x1="34.54" y1="72.59" x2="201.3" y2="239.35" gradientUnits="userSpaceOnUse"><stop offset="0" stop-color="#cb218e"/><stop offset="1" stop-color="#5f0a87"/></linearGradient><linearGradient id="linear-gradient-2" x1="86.74" y1="45.96" x2="86.74" y2="162.81" gradientUnits="userSpaceOnUse"><stop offset="0" stop-color="#fff" stop-opacity="0"/><stop offset="1" stop-color="#fff"/></linearGradient></defs><g class="cls-1"><g id="Layer_2" data-name="Layer 2"><g id="DESIGNED_BY_FREEPIK" data-name="DESIGNED BY FREEPIK"><circle class="cls-2" cx="117.92" cy="155.97" r="117.92"/><g class="cls-3"><text class="cls-4" transform="translate(36.18 51.7)">404</text><ellipse class="cls-5" cx="129.15" cy="274.73" rx="67.38" ry="1.97"/></g><path class="cls-6" d="M169.46,217.69a5.43,5.43,0,0,1,2.38.17c1.55.3,3.48.66,5-.34,1.21-.84,2.48-2.92,1.6-4.57a1.76,1.76,0,0,0-1.27-.94c-1.34-.23-2.83.82-3.27,1.12a18,18,0,0,0-1.7,1.42,10.94,10.94,0,0,1-1.17,1,9.79,9.79,0,0,1-1,.63c-.15.1-.58.31-.84.44l-.26.13a7.81,7.81,0,0,1-1.81.63l1.38-3.2c.33-.81.66-1.61.9-2.22s.4-1,.4-1a7.23,7.23,0,0,0,2.71-.93,5.49,5.49,0,0,1,2.4,0c1.58.14,3.54.31,5-1a5,5,0,0,0,1.4-2.37,4.47,4.47,0,0,0,.17-1.44,2.7,2.7,0,0,0-.47-1.32,1.66,1.66,0,0,0-1.39-.78c-1.36,0-2.67,1.34-3.1,1.7A22.26,22.26,0,0,0,175,206.5a14.68,14.68,0,0,1-1.08,1.15,10.27,10.27,0,0,1-.89.75c-.15.12-.55.38-.8.53l-.25.15a7.37,7.37,0,0,1-1.77.78l.52-1.47.47-1.49a6.76,6.76,0,0,0,.85-2.85,2.53,2.53,0,0,1,.47-.93c.23-.35.51-.74.82-1.15,1-1.28,2.11-3.08,1.79-4.9-.33-1.5-1.7-3.2-3.41-2.78h0a2.08,2.08,0,0,0-1.3.88A3,3,0,0,0,170,197a6.07,6.07,0,0,0,.1,1.34c.11.67.38,1.34.53,2,.12.46.24.94.32,1.41a8.78,8.78,0,0,1,.12,1.11c0,.18,0,.65-.05.93l0,.28c0,.13,0,.25,0,.37s-.31,1.31-.74,2.59-.87,2.56-.87,2.56a8.46,8.46,0,0,1-.89-1.66c0-.06-.06-.15-.11-.26-.11-.26-.31-.69-.37-.87-.13-.37-.24-.7-.33-1s-.19-.93-.31-1.38a11.75,11.75,0,0,0-.6-1.91,4.12,4.12,0,0,0-2.26-2.24,2.35,2.35,0,0,0-1.55,0,2,2,0,0,0-1.25,1.46,3.5,3.5,0,0,0,.23,1.92c.59,1.42,2.3,2.38,3.67,3.17a5.28,5.28,0,0,1,1.87,1.42,9.17,9.17,0,0,0,1.51,2.41s-.14.4-.39,1-.57,1.4-.89,2.21L166.31,217a8.41,8.41,0,0,1-.76-1.75l-.09-.27a8.07,8.07,0,0,1-.27-.92A9.72,9.72,0,0,1,165,213c-.06-.48-.11-1-.16-1.45a14.27,14.27,0,0,0-.3-2,4.46,4.46,0,0,0-1.88-2.67,2.17,2.17,0,0,0-1.54-.17c-1.58.4-2,2.33-1.6,3.62.38,1.61,2,2.74,3.28,3.65a5.46,5.46,0,0,1,1.75,1.59,8.1,8.1,0,0,0,1.33,2.52L163,224.39a8,8,0,0,1-.76-1.75l-.08-.28a8,8,0,0,1-.26-.93,10.18,10.18,0,0,1-.19-1.1c-.06-.49-.08-1-.1-1.49a13.85,13.85,0,0,0-.2-2.14,4.63,4.63,0,0,0-1.64-2.9,2,2,0,0,0-1.55-.24,2.45,2.45,0,0,0-1.68,1.57,4.37,4.37,0,0,0-.25,2.34c.32,1.71,1.9,2.9,3.18,3.83a5.46,5.46,0,0,1,1.73,1.6,7.75,7.75,0,0,0,1.36,2.54l-.42,1c-.26.59-.58,1.4-.9,2.22-.65,1.62-1.21,3.27-1.21,3.27a7.15,7.15,0,0,1-.89-1.72l-.1-.27a8.8,8.8,0,0,1-.3-.92,10,10,0,0,1-.23-1.11c-.08-.49-.12-1-.16-1.52a20.07,20.07,0,0,0-.23-2.19,4.83,4.83,0,0,0-1.65-3,1.88,1.88,0,0,0-1.56-.21c-1.69.52-2.25,2.79-1.94,4.28.36,1.8,2,2.87,3.33,3.75a5.63,5.63,0,0,1,1.83,1.52,7.67,7.67,0,0,0,1.51,2.45s-.14.41-.33,1l-.71,2.29-.88,3.39a7.17,7.17,0,0,1-1-1.61c0-.06-.07-.15-.13-.26-.12-.26-.33-.7-.4-.9a10.81,10.81,0,0,1-.36-1.1c-.12-.49-.19-1-.27-1.51a17.29,17.29,0,0,0-.41-2.22,4.94,4.94,0,0,0-1.83-2.91,1.76,1.76,0,0,0-1.57-.08c-1.71.65-2.07,3.18-1.68,4.63.53,1.83,2.29,2.76,3.69,3.48a5.48,5.48,0,0,1,2,1.32,7,7,0,0,0,1.8,2.29,31.87,31.87,0,0,0-.54,3.47c-.13.87-.15,1.75-.2,2.41l0,1.09a6.55,6.55,0,0,1-1.33-1.39l-.18-.24c-.17-.23-.46-.64-.56-.82a6.09,6.09,0,0,1-.53-1c-.19-.47-.35-1-.51-1.51-.25-.73-.43-1.5-.7-2.22-.2-.5-.94-2.32-2.16-2.83a1.71,1.71,0,0,0-1.58.12,3.45,3.45,0,0,0-1.4,2.47,5.5,5.5,0,0,0,.33,2.85c.75,1.86,2.72,2.47,4.22,2.94a5.62,5.62,0,0,1,2.18.94,6.54,6.54,0,0,0,2.23,1.89s0,1.26.13,3.14a41.65,41.65,0,0,0,1.16,6.81,36.58,36.58,0,0,0,2.34,6.51c.41.85.8,1.55,1.09,2l.35.55a1.12,1.12,0,0,0,.14.19.45.45,0,0,0,.66.1.49.49,0,0,0,.09-.64,1.22,1.22,0,0,1-.13-.17l-.32-.52a19.23,19.23,0,0,1-1-1.94,35.41,35.41,0,0,1-2.29-6.34,41.76,41.76,0,0,1-1.13-6.66,30.39,30.39,0,0,1-.13-3.06,11.23,11.23,0,0,0,2.26-1.66,5.26,5.26,0,0,1,2.28-.6c1.58-.2,3.44-.43,4.59-1.39a3.06,3.06,0,0,0,.95-1.55,1.76,1.76,0,0,0-.58-1.79,2.15,2.15,0,0,0-1.39-.68,4.34,4.34,0,0,0-3,1.13,7.53,7.53,0,0,0-1.3,1.47c-.27.36-.55.74-.84,1.1s-.46.51-.71.8-.44.45-.64.64l-.2.2a9.55,9.55,0,0,1-1.47,1.2s0-.43.06-1.07.06-1.5.19-2.35a31.83,31.83,0,0,1,.53-3.39,9.61,9.61,0,0,0,2.54-1.19,5.37,5.37,0,0,1,2.37-.17c1.58.08,3.51.19,4.79-.72,1.08-.74,2-2.36,1-3.73a2,2,0,0,0-1.3-.85,4.5,4.5,0,0,0-3.15.9,12.21,12.21,0,0,0-1.52,1.36c-.33.34-.69.68-1,1s-.51.46-.83.71c-.14.11-.52.37-.76.52l-.23.16a9.27,9.27,0,0,1-1.69.91s.44-1.67.87-3.34c.26-.83.51-1.65.7-2.27s.33-1,.33-1a8.46,8.46,0,0,0,2.69-.9,5.31,5.31,0,0,1,2.36.07c1.54.23,3.5.54,4.89-.3,1.11-.68,2.26-2.38,1.4-3.85a2,2,0,0,0-1.23-1,4.6,4.6,0,0,0-3.22.74,14.11,14.11,0,0,0-1.67,1.27c-.36.32-.73.64-1.11.93s-.57.41-.92.63c-.15.1-.58.31-.82.45l-.24.13a8.19,8.19,0,0,1-1.75.74s.55-1.64,1.2-3.24c.32-.81.64-1.61.89-2.21s.42-1,.42-1a8.2,8.2,0,0,0,2.74-.73,5.33,5.33,0,0,1,2.37.2c1.55.31,3.46.73,4.94-.15a4.22,4.22,0,0,0,1.56-1.72,2.62,2.62,0,0,0,.08-2.39,1.86,1.86,0,0,0-1.21-1,4.8,4.8,0,0,0-3.28.79,17.27,17.27,0,0,0-1.73,1.29c-.38.31-.77.63-1.17.91s-.59.39-1,.59a9.33,9.33,0,0,1-.84.42l-.26.12a7.81,7.81,0,0,1-1.81.63l2.82-6.35A7.9,7.9,0,0,0,169.46,217.69Z"/><path class="cls-7" d="M156.82,218.74c-.08-1.14-.19-2.27-.32-3.4a4.27,4.27,0,0,0-.18,2.13A3.79,3.79,0,0,0,156.82,218.74Z"/><path class="cls-7" d="M165.78,241.32a4.34,4.34,0,0,0-3,1.13,7.53,7.53,0,0,0-1.3,1.47c-.27.36-.55.74-.84,1.1s-.46.51-.71.8-.44.45-.64.64l-.2.2a9.55,9.55,0,0,1-1.47,1.2s0-.43.06-1.07.06-1.5.19-2.35c0-.29.06-.58.1-.86a40.34,40.34,0,0,1-.57-4.24,6.67,6.67,0,0,1-.72-1.21c0-.06-.07-.15-.13-.26-.12-.26-.33-.7-.4-.9a10.81,10.81,0,0,1-.36-1.1c-.12-.49-.19-1-.27-1.51a17.29,17.29,0,0,0-.41-2.22,4.94,4.94,0,0,0-1.83-2.91,1.76,1.76,0,0,0-1.57-.08c-1.71.65-2.07,3.18-1.68,4.63.53,1.83,2.29,2.76,3.69,3.48a5.48,5.48,0,0,1,2,1.32,7,7,0,0,0,1.8,2.29,31.87,31.87,0,0,0-.54,3.47c-.13.87-.15,1.75-.2,2.41l0,1.09a6.55,6.55,0,0,1-1.33-1.39l-.18-.24c-.17-.23-.46-.64-.56-.82a6.09,6.09,0,0,1-.53-1c-.19-.47-.35-1-.51-1.51-.25-.73-.43-1.5-.7-2.22-.2-.5-.94-2.32-2.16-2.83a1.71,1.71,0,0,0-1.58.12,3.45,3.45,0,0,0-1.4,2.47,5.5,5.5,0,0,0,.33,2.85c.75,1.86,2.72,2.47,4.22,2.94a5.62,5.62,0,0,1,2.18.94,6.54,6.54,0,0,0,2.23,1.89s0,1.26.13,3.14a41.65,41.65,0,0,0,1.16,6.81,36.58,36.58,0,0,0,2.34,6.51c.41.85.8,1.55,1.09,2l.35.55a1.12,1.12,0,0,0,.14.19.45.45,0,0,0,.66.1.49.49,0,0,0,.09-.64,1.22,1.22,0,0,1-.13-.17l-.32-.52a19.23,19.23,0,0,1-1-1.94,35.41,35.41,0,0,1-2.29-6.34,41.76,41.76,0,0,1-1.13-6.66,30.39,30.39,0,0,1-.13-3.06,11.23,11.23,0,0,0,2.26-1.66,5.26,5.26,0,0,1,2.28-.6c1.58-.2,3.44-.43,4.59-1.39a3.06,3.06,0,0,0,.95-1.55,1.76,1.76,0,0,0-.58-1.79A2.15,2.15,0,0,0,165.78,241.32Z"/><path class="cls-7" d="M168.55,234.67l-3.86,3.67-1.41,1.35h.07c1.58.08,3.51.19,4.79-.72,1.08-.74,2-2.36,1-3.73A2.06,2.06,0,0,0,168.55,234.67Z"/><path class="cls-7" d="M156.33,229.05l.88.59v-.18c0-2.41-.06-4.81-.17-7.22l0-.57a3,3,0,0,0-.51-.44,1.88,1.88,0,0,0-1.56-.21c-1.69.52-2.25,2.79-1.94,4.28C153.36,227.1,155,228.17,156.33,229.05Z"/><path class="cls-6" d="M100.09,224a5.66,5.66,0,0,1,1.59-1.71c1.19-1,2.66-2.3,3-3.72a2.69,2.69,0,0,0-.15-1.79,1.66,1.66,0,0,0-1.51-1,2.4,2.4,0,0,0-1.5.38,4.42,4.42,0,0,0-1.7,2.59,8.78,8.78,0,0,0-.21,1.83c0,.42,0,.86-.09,1.29s-.08.62-.15,1c0,.16-.14.58-.2.83s-.06.2-.07.26a8.82,8.82,0,0,1-.62,1.68s-.21-.32-.49-.8l-1-1.79-1-1.81-.42-.84a9.14,9.14,0,0,0,1.35-2.32,6,6,0,0,1,1.78-1.52c1.3-.88,2.88-2,3.43-3.27.41-1.07.29-2.58-1.26-2.88a2.46,2.46,0,0,0-1.52.19,4.26,4.26,0,0,0-2,2.31,8.62,8.62,0,0,0-.46,1.76c-.07.41-.14.84-.25,1.26s-.17.6-.27,1c0,.15-.2.55-.3.79l-.09.24a9,9,0,0,1-.81,1.61l-.56-1.22-.38-.83-.16-.39a6.83,6.83,0,0,0-.87-2.39,3.8,3.8,0,0,1,.13-2.09,13.65,13.65,0,0,0,.4-2.17,3.14,3.14,0,0,0-.41-2.06,3.42,3.42,0,0,0-3.89-1.48h0A1.88,1.88,0,0,0,88.27,208a2.91,2.91,0,0,0,0,1.8,5.33,5.33,0,0,0,.57,1.21,9.54,9.54,0,0,0,1.24,1.53c.31.33.63.66.91,1s.4.5.62.81a8.29,8.29,0,0,1,.45.71l.13.21.16.29s.1.29.27.7.4,1,.62,1.52l1,2.18a6.81,6.81,0,0,1-1.76-.45l-.25-.1a8.68,8.68,0,0,1-.84-.37,5.93,5.93,0,0,1-.9-.53c-.38-.27-.75-.57-1.11-.87-.53-.43-1-.9-1.61-1.3a5.11,5.11,0,0,0-3.17-1,1.86,1.86,0,0,0-1.31.86c-1,1.48.2,3.53,1.41,4.3,1.46,1,3.41.53,4.94.19a6,6,0,0,1,2.32-.29,7,7,0,0,0,2.73.45l.42.85c.28.5.64,1.17,1,1.84s.77,1.31,1.06,1.81.49.81.49.81a7,7,0,0,1-1.79-.25l-.26-.07a8.29,8.29,0,0,1-.87-.27,7.7,7.7,0,0,1-1-.41c-.4-.21-.8-.46-1.19-.71-.56-.36-1.14-.74-1.75-1.06a5.06,5.06,0,0,0-3.27-.55,1.86,1.86,0,0,0-1.18,1,2.56,2.56,0,0,0,.18,2.37,4.14,4.14,0,0,0,1.71,1.6c1.55.74,3.41.08,4.89-.44a5.9,5.9,0,0,1,2.28-.55,7.48,7.48,0,0,0,2.74.15s.82,1.28,1.66,2.54,1.72,2.51,1.72,2.51a7.41,7.41,0,0,1-1.8-.14l-.27-.05c-.26,0-.69-.14-.87-.2a7.33,7.33,0,0,1-1-.33,11.71,11.71,0,0,1-1.24-.59,14.29,14.29,0,0,0-1.81-.84,4.8,4.8,0,0,0-3.26-.17,1.92,1.92,0,0,0-1.08,1.12c-.62,1.62.84,3.16,2.11,3.6,1.56.53,3.35-.25,4.8-.87a6.1,6.1,0,0,1,2.22-.72,7.64,7.64,0,0,0,2.74,0l3.51,4.93a7.87,7.87,0,0,1-1.8-.1l-.26-.05a7.67,7.67,0,0,1-.88-.17c-.35-.09-.67-.18-1-.29s-.83-.35-1.24-.54a14,14,0,0,0-1.81-.73,4.76,4.76,0,0,0-3.22.06,2,2,0,0,0-1,1.17c-.56,1.59.88,3,2.12,3.3,1.53.44,3.3-.38,4.73-1a6.07,6.07,0,0,1,2.2-.76,8.33,8.33,0,0,0,2.73,0s.23.3.53.77.73,1.09,1.14,1.72c.78,1.28,1.52,2.58,1.52,2.58a10,10,0,0,1-1.78-.27l-.26-.07c-.25-.06-.67-.16-.83-.22-.33-.1-.63-.21-.9-.32s-.8-.34-1.18-.51a10.93,10.93,0,0,0-1.68-.63,4.66,4.66,0,0,0-3.19.14,2.11,2.11,0,0,0-1,1.16,2,2,0,0,0-.1,1.11,3,3,0,0,0,.16.48,1.9,1.9,0,0,0,.2.37,2.45,2.45,0,0,0,1.46.87c1.36.3,3.14-.39,4.62-.93a5.89,5.89,0,0,1,2.25-.57,10.61,10.61,0,0,0,2.68.27l.42.83c.26.5.54,1.19.83,1.88.14.35.29.69.42,1l.31.9c.18.53.31.88.31.88a8.66,8.66,0,0,1-1.69-.58l-.24-.11a8,8,0,0,1-.76-.36c-.33-.15-.61-.3-.87-.45s-.71-.46-1-.69A8.22,8.22,0,0,0,106,247a4.31,4.31,0,0,0-3-.09,2.5,2.5,0,0,0-1.19,1c-.9,1.29.08,2.32,1.08,2.73,1.29.47,3.18.1,4.71-.18a5.8,5.8,0,0,1,2.31-.17,10.78,10.78,0,0,0,2.59.74l.19.71c.06.22.14.5.22.81s.14.68.23,1.07a30.71,30.71,0,0,1,.65,5.82,27.91,27.91,0,0,1-.51,5.83,17.81,17.81,0,0,1-.67,2.56.45.45,0,0,0,.31.53.43.43,0,0,0,.57-.24,20.07,20.07,0,0,0,.7-2.67,28.35,28.35,0,0,0,.52-6,30.81,30.81,0,0,0-.67-6c-.08-.4-.16-.77-.23-1.1s-.16-.6-.23-.83c-.12-.46-.2-.73-.2-.73a6.2,6.2,0,0,0,1.65-2.2,6.06,6.06,0,0,1,1.88-1.44c1.34-.84,3-1.91,3.34-3.71.31-1.47-.44-3.81-2.16-4.19a1.79,1.79,0,0,0-1.54.34,5.19,5.19,0,0,0-1.46,3c-.11.69-.11,1.39-.18,2.08,0,.48-.08,1-.16,1.43a8.29,8.29,0,0,1-.25,1c-.05.16-.23.59-.34.84l-.11.25a6.76,6.76,0,0,1-1,1.55l-.32-.9-.32-.93c-.13-.33-.28-.69-.43-1a19.29,19.29,0,0,0-.85-1.92l-.42-.86a6.55,6.55,0,0,0,1.23-2.46,6,6,0,0,1,1.59-1.74c1.17-1,2.65-2.39,2.69-4.19a4.59,4.59,0,0,0-.69-2.35,3.27,3.27,0,0,0-.39-.51,1.9,1.9,0,0,0-.42-.35,2,2,0,0,0-1.09-.28,2.06,2.06,0,0,0-1.44.58,4.61,4.61,0,0,0-1.15,3,17.58,17.58,0,0,0,.12,2.07c0,.47.09.95.1,1.41a8.68,8.68,0,0,1-.1,1.08,8.41,8.41,0,0,1-.19.88l-.06.27a6.6,6.6,0,0,1-.65,1.68s-.75-1.33-1.54-2.64l-1.17-1.74c-.31-.49-.53-.79-.53-.79a8,8,0,0,0,.92-2.55,5.86,5.86,0,0,1,1.43-1.86c1.09-1.14,2.44-2.55,2.53-4.13.08-1.27-.67-3-2.29-2.94a2.17,2.17,0,0,0-1.44.58,4.55,4.55,0,0,0-1.21,2.94A13.73,13.73,0,0,0,107,232c0,.43.09.89.1,1.33s0,.65,0,1c0,.17-.08.6-.12.86l0,.27a7.72,7.72,0,0,1-.49,1.73l-3.51-4.92a8.23,8.23,0,0,0,1-2.54,5.76,5.76,0,0,1,1.47-1.82c1.11-1.11,2.5-2.49,2.67-4,.15-1.23-.45-2.85-2-2.84a2.41,2.41,0,0,0-1.46.52,4.48,4.48,0,0,0-1.4,2.81,10.86,10.86,0,0,0,0,1.89c0,.43,0,.88,0,1.31a7.71,7.71,0,0,1-.07,1c0,.16-.09.59-.14.85l0,.26a8.48,8.48,0,0,1-.51,1.73s-.87-1.24-1.71-2.49S99,226.49,99,226.49A8.63,8.63,0,0,0,100.09,224Z"/><path class="cls-7" d="M113.47,240l0,0c1.17-1,2.65-2.39,2.69-4.19a4.59,4.59,0,0,0-.69-2.35,3.27,3.27,0,0,0-.39-.51,1.9,1.9,0,0,0-.42-.35,2.14,2.14,0,0,0-2.15,0Q112.94,236.26,113.47,240Z"/><path class="cls-7" d="M118,239.19a1.79,1.79,0,0,0-1.54.34,5.19,5.19,0,0,0-1.46,3c-.11.69-.11,1.39-.18,2.08,0,.48-.08,1-.16,1.43a8.29,8.29,0,0,1-.25,1c-.05.16-.23.59-.34.84l-.11.25a6.76,6.76,0,0,1-1,1.55l-.32-.9-.32-.93c-.13-.33-.28-.69-.43-1a19.29,19.29,0,0,0-.85-1.92l-.42-.86a6.55,6.55,0,0,0,1.23-2.46,2.74,2.74,0,0,1,.68-.91,22.21,22.21,0,0,0-1.41-2.33c0,.3,0,.6,0,.89a8.68,8.68,0,0,1-.1,1.08,8.41,8.41,0,0,1-.19.88l-.06.27a6.6,6.6,0,0,1-.65,1.68s-.75-1.33-1.54-2.64l-1.17-1.74c-.31-.49-.53-.79-.53-.79a8,8,0,0,0,.92-2.55,2.08,2.08,0,0,1,.36-.66q-.59-.63-1.17-1.23c0,.24,0,.49,0,.77s-.08.6-.12.86l0,.27a7.72,7.72,0,0,1-.49,1.73l-3.51-4.92a8.14,8.14,0,0,0,.77-1.8c-.27-.22-.55-.43-.84-.64a8.56,8.56,0,0,1-.49,1.63s-.87-1.24-1.71-2.49l-.53-.8c-.51-.26-1-.49-1.56-.71.31.49.81,1.26,1.32,2,.85,1.26,1.72,2.51,1.72,2.51a7.41,7.41,0,0,1-1.8-.14l-.27-.05c-.26,0-.69-.14-.87-.2a7.33,7.33,0,0,1-1-.33,11.71,11.71,0,0,1-1.24-.59,14.29,14.29,0,0,0-1.81-.84,4.8,4.8,0,0,0-3.26-.17,1.92,1.92,0,0,0-1.08,1.12c-.62,1.62.84,3.16,2.11,3.6,1.56.53,3.35-.25,4.8-.87a6.1,6.1,0,0,1,2.22-.72,7.64,7.64,0,0,0,2.74,0l3.51,4.93a7.87,7.87,0,0,1-1.8-.1l-.26-.05a7.67,7.67,0,0,1-.88-.17c-.35-.09-.67-.18-1-.29s-.83-.35-1.24-.54a14,14,0,0,0-1.81-.73,4.76,4.76,0,0,0-3.22.06,2,2,0,0,0-1,1.17c-.56,1.59.88,3,2.12,3.3,1.53.44,3.3-.38,4.73-1a6.07,6.07,0,0,1,2.2-.76,8.33,8.33,0,0,0,2.73,0s.23.3.53.77.73,1.09,1.14,1.72c.78,1.28,1.52,2.58,1.52,2.58a10,10,0,0,1-1.78-.27l-.26-.07c-.25-.06-.67-.16-.83-.22-.33-.1-.63-.21-.9-.32s-.8-.34-1.18-.51a10.93,10.93,0,0,0-1.68-.63,4.66,4.66,0,0,0-3.19.14,2.11,2.11,0,0,0-1,1.16,2,2,0,0,0-.1,1.11,3,3,0,0,0,.16.48,1.9,1.9,0,0,0,.2.37,2.45,2.45,0,0,0,1.46.87c1.36.3,3.14-.39,4.62-.93a5.89,5.89,0,0,1,2.25-.57,10.61,10.61,0,0,0,2.68.27l.42.83c.26.5.54,1.19.83,1.88.14.35.29.69.42,1l.31.9c.18.53.31.88.31.88a8.66,8.66,0,0,1-1.69-.58l-.24-.11a8,8,0,0,1-.76-.36c-.33-.15-.61-.3-.87-.45s-.71-.46-1-.69A8.22,8.22,0,0,0,106,247a4.31,4.31,0,0,0-3-.09,2.5,2.5,0,0,0-1.19,1c-.9,1.29.08,2.32,1.08,2.73,1.29.47,3.18.1,4.71-.18a5.8,5.8,0,0,1,2.31-.17,10.78,10.78,0,0,0,2.59.74l.19.71c.06.22.14.5.22.81s.14.68.23,1.07a30.71,30.71,0,0,1,.65,5.82,27.91,27.91,0,0,1-.51,5.83,17.81,17.81,0,0,1-.67,2.56.45.45,0,0,0,.31.53.43.43,0,0,0,.57-.24,20.07,20.07,0,0,0,.7-2.67,28.35,28.35,0,0,0,.52-6,30.81,30.81,0,0,0-.67-6c-.08-.4-.16-.77-.23-1.1s-.16-.6-.23-.83c-.12-.46-.2-.73-.2-.73a6.2,6.2,0,0,0,1.65-2.2,6.06,6.06,0,0,1,1.88-1.44c1.34-.84,3-1.91,3.34-3.71C120.49,241.91,119.74,239.57,118,239.19Z"/><path class="cls-7" d="M95.47,226.84a7.38,7.38,0,0,0,1.85.2,16.31,16.31,0,0,0-3.31-.73,32.29,32.29,0,0,0-4.4-.08l-2.93.13a4.17,4.17,0,0,0,1.62,1.47c1.55.74,3.41.08,4.89-.44A5.9,5.9,0,0,1,95.47,226.84Z"/><path class="cls-8" d="M84.6,234.24A9.24,9.24,0,0,1,89,230.45a9.57,9.57,0,0,1,6-.16c4.3,1.17,9.16,5.11,12.33,11.44a60.47,60.47,0,0,1,3.85,9.44c.51,1.52.87,3,1.23,4.44s.59,2.76.75,4c.71,5,.36,8.39-.36,8.68s-3.23-1.94-6.74-4.89c-.86-.75-1.85-1.51-2.83-2.33s-2-1.62-3.17-2.41a83.31,83.31,0,0,0-7-4.66c-4.75-2.87-7.85-5.75-9.38-9.08a10.86,10.86,0,0,1-1-5.2A11.34,11.34,0,0,1,84.6,234.24Z"/><path class="cls-8" d="M94.85,242.27a6.85,6.85,0,0,1,3.57-2.11,7,7,0,0,1,4.14.51c2.83,1.21,5.7,4.3,7.44,8.83a52.23,52.23,0,0,1,3.19,12.7c.38,3.53.14,5.91-.37,6.12s-2.3-1.37-4.75-3.58-5.64-5-8.93-7.49-5.29-5-6.07-7.52a7.28,7.28,0,0,1-.18-3.84A7.77,7.77,0,0,1,94.85,242.27Z"/><path class="cls-9" d="M94.85,242.27a6.85,6.85,0,0,1,3.57-2.11,7,7,0,0,1,4.14.51c2.83,1.21,5.7,4.3,7.44,8.83a52.23,52.23,0,0,1,3.19,12.7c.38,3.53.14,5.91-.37,6.12s-2.3-1.37-4.75-3.58-5.64-5-8.93-7.49-5.29-5-6.07-7.52a7.28,7.28,0,0,1-.18-3.84A7.77,7.77,0,0,1,94.85,242.27Z"/><path class="cls-10" d="M90.06,230.14l-.52.14c.49,3.83.95,6.75,1.17,8.05,0,0-1.43-1.16-2.93-2.23-.73-.55-1.51-1-2.08-1.44l-1-.64-.15.22-.14.23,1,.63c.56.39,1.33.88,2.06,1.44,1.49,1.05,2.91,2.21,2.91,2.21a28.2,28.2,0,0,0-7.66,1.51v.5a29.17,29.17,0,0,1,5.52-1.3,23.9,23.9,0,0,1,2.74-.22s.44.35,1.08.91,1.5,1.28,2.32,2.06,1.63,1.55,2.23,2.15l.72.73.27.28a29.27,29.27,0,0,0-12.53,1.83l.27.38a28.78,28.78,0,0,1,12.79-1.64l1,1c.56.63,1.29,1.49,2,2.34s1.41,1.76,1.92,2.44l.84,1.13a29.6,29.6,0,0,0-12.41.1l.55.34a31.41,31.41,0,0,1,4.5-.54,32.71,32.71,0,0,1,3.79.08,26.74,26.74,0,0,1,4,.66s.33.45.81,1.16,1.11,1.63,1.69,2.59,1.18,1.93,1.59,2.67c.22.36.39.67.51.88l.19.34a29.62,29.62,0,0,0-7.85-1.59l.7.54a27.08,27.08,0,0,1,7.51,1.75s.85,1.57,1.59,3.19c.4.8.73,1.63,1,2.25s.44,1,.44,1a.55.55,0,0,0,.29,0,.53.53,0,0,0,.21-.19l-.45-1c-.27-.62-.6-1.46-1-2.26-.75-1.64-1.61-3.22-1.61-3.22.11-.51.82-3.54,2-7.78l-.27-1c-1.09,3.82-1.81,6.77-2.1,8.07l-.19-.35-.51-.89c-.42-.74-1-1.73-1.6-2.68s-1.23-1.91-1.71-2.62-.81-1.16-.81-1.16c0-.69.56-6.08,1.77-13l-.43-.71c-1.12,6.17-1.62,11.19-1.81,13l-.84-1.14c-.51-.69-1.24-1.56-1.94-2.46s-1.47-1.73-2-2.36l-1-1c0-.74-.28-6.4.08-13.72l-.53-.31c-.29,6.38-.16,11.6-.09,13.45l-.27-.29L97,244c-.6-.61-1.41-1.41-2.25-2.17s-1.69-1.53-2.34-2.08-1.08-.92-1.08-.92C91.21,238.29,90.64,234.92,90.06,230.14Z"/><path class="cls-11" d="M113.18,259.64c-.16-1.27-.46-2.59-.75-4s-.72-2.92-1.23-4.44c-.21-.7-.45-1.4-.7-2.11,0,.16,0,.32,0,.49.15,1.54.26,3.09.37,4.64a11.25,11.25,0,0,1-.3,4.4.09.09,0,0,1-.14,0,76,76,0,0,0-5.46-5.46,33,33,0,0,0-2.71-2.17,24,24,0,0,0-2.93-1.74,62.35,62.35,0,0,0-6.27-2.75c-2.06-.79-4.13-1.54-6.17-2.39a25.56,25.56,0,0,0-4-1.5,11,11,0,0,0,.78,2.33c1.53,3.33,4.63,6.21,9.38,9.08a83.31,83.31,0,0,1,7,4.66c1.13.79,2.14,1.63,3.17,2.41s2,1.58,2.83,2.33c3.51,2.95,6,5.21,6.74,4.89S113.89,264.66,113.18,259.64Z"/><path class="cls-8" d="M70.39,251.65A6.09,6.09,0,0,1,72.3,247a8,8,0,0,1,2.4-1.52,12.57,12.57,0,0,1,1.5-.52,13.29,13.29,0,0,1,1.62-.3c4.55-.6,10.39.84,16.09,4.54a94.1,94.1,0,0,1,8,5.8,63.74,63.74,0,0,1,6.38,5.87,26.82,26.82,0,0,1,3.82,4.94c.74,1.4.92,2.29.68,2.52s-1.16,0-2.46-.32-3.21-.81-5.48-1.27-4.9-1-7.71-1.43-5.83-.88-8.83-1.21c-6-.7-10.52-2.06-13.41-4.07a10.66,10.66,0,0,1-1-.81,9.61,9.61,0,0,1-.86-.83,9.36,9.36,0,0,1-1.37-1.91A10.29,10.29,0,0,1,70.39,251.65Z"/><path class="cls-8" d="M83.54,254.09c.73-2.51,2.84-3.88,5.86-4s6.83,1.25,10.67,4.06a60.53,60.53,0,0,1,9.75,8.75,18.93,18.93,0,0,1,1.54,1.95,12.27,12.27,0,0,1,1,1.65c.48,1,.63,1.61.45,1.78s-.84,0-1.76-.26c-.44-.16-1.07-.29-1.7-.49s-1.37-.38-2.16-.58c-3.17-.82-7.43-1.72-11.7-2.47s-7.56-2.09-9.66-3.87S82.82,256.59,83.54,254.09Z"/><path class="cls-9" d="M83.54,254.09c.73-2.51,2.84-3.88,5.86-4s6.83,1.25,10.67,4.06a60.53,60.53,0,0,1,9.75,8.75,18.93,18.93,0,0,1,1.54,1.95,12.27,12.27,0,0,1,1,1.65c.48,1,.63,1.61.45,1.78s-.84,0-1.76-.26c-.44-.16-1.07-.29-1.7-.49s-1.37-.38-2.16-.58c-3.17-.82-7.43-1.72-11.7-2.47s-7.56-2.09-9.66-3.87S82.82,256.59,83.54,254.09Z"/><path class="cls-10" d="M73.14,246.32l-.43.32c.69.65,1.24,1.34,1.79,1.92s1,1.11,1.46,1.63c.86,1,1.54,1.75,2,2.21l-1.17-.23c-.69-.13-1.62-.33-2.56-.43l-1.38-.18c-.45-.05-.86-.05-1.22-.08l-1.19-.06v.45l1.17.06c.35,0,.76,0,1.19.08l1.36.18c.94.1,1.86.3,2.55.43l1.15.22a28.41,28.41,0,0,0-2.55,1.34,15,15,0,0,0-1.68,1.16,13.22,13.22,0,0,0-1.71,1.5l.22.36a24.42,24.42,0,0,1,2.15-1.8,21.59,21.59,0,0,1,2-1.25A19.08,19.08,0,0,1,78.6,253s2.27.51,4.5,1.17c1.12.31,2.21.69,3.05.94s1.38.46,1.38.46a30.69,30.69,0,0,0-4.29,1.72,27.16,27.16,0,0,0-6,4l.44.2a29.53,29.53,0,0,1,10.64-5.64s2.2.75,4.36,1.6c1.09.4,2.16.87,3,1.2s1.33.56,1.33.56a34.24,34.24,0,0,0-4.34,1.33,32.38,32.38,0,0,0-6.37,3.26l.7.09a32.56,32.56,0,0,1,10.75-4.35l1.33.59c.8.35,1.83.88,2.88,1.37s2.06,1.07,2.84,1.47,1.26.72,1.26.72a22,22,0,0,0-2.91.5,30.06,30.06,0,0,0-4.37,1.35l.9.16a30.31,30.31,0,0,1,4.72-1.3c1.24-.22,2.11-.29,2.36-.31,0,0,.4.22,1,.59s1.36.85,2.1,1.38a22.65,22.65,0,0,1,2,1.56l.83.77a.48.48,0,0,0,.24-.09.37.37,0,0,0,.09-.22l-.86-.8a21.22,21.22,0,0,0-2-1.58c-.76-.54-1.55-1-2.13-1.41s-1-.59-1-.59c-.11-.22-.47-1-1-2.24s-1.19-2.83-1.91-4.72l-.77-.65c.63,1.68,1.25,3.21,1.76,4.44s1,2.19,1.19,2.76c0,0-.49-.3-1.27-.72s-1.8-1-2.85-1.47-2.09-1-2.89-1.38l-1.34-.59a79,79,0,0,1-5.33-10.8l-.7-.39a82.13,82.13,0,0,0,5.29,10.86s-.53-.25-1.34-.57-1.88-.8-3-1.2c-2.17-.86-4.38-1.61-4.38-1.61a101.89,101.89,0,0,1-6.64-10.82l-.61-.05a112.48,112.48,0,0,0,6.48,10.6s-.55-.2-1.38-.46-1.94-.64-3.07-.94c-2.24-.67-4.52-1.18-4.52-1.18l-1.75-2c-.48-.54-1-1.21-1.66-1.91Z"/><path class="cls-9" d="M112.14,265.8a26.82,26.82,0,0,0-3.82-4.94,63.74,63.74,0,0,0-6.38-5.87c-1.67-1.33-3.46-2.68-5.34-4a8.65,8.65,0,0,0-3.06,1.75c-1.42,1.25-2,3-2.77,4.67a6.49,6.49,0,0,1-2.67,3.15,11.25,11.25,0,0,1-4.06,1.1,20,20,0,0,1-4.24.12,12.13,12.13,0,0,1-3-.7,35.21,35.21,0,0,0,11.57,3c3,.33,6,.78,8.83,1.21s5.48.93,7.71,1.43,4.11.95,5.48,1.27,2.2.56,2.46.32S112.88,267.2,112.14,265.8Z"/><path class="cls-8" d="M93.15,256.92a6.16,6.16,0,0,1,1.73-3.09A5.19,5.19,0,0,1,98,252.52c2.42-.21,5.33,1,7.75,3.58a39.54,39.54,0,0,1,5.71,7.77c1.27,2.33,1.72,4.11,1.37,4.45s-2-.05-4.42-.55-5.43-1.15-8.39-1.61-4.91-1.46-6-3a6.12,6.12,0,0,1-1.06-2.72A8.86,8.86,0,0,1,93.15,256.92Z"/><path class="cls-8" d="M99.36,259.29a4.09,4.09,0,0,1,3.78-2.62,6.92,6.92,0,0,1,5,2.87,32.62,32.62,0,0,1,3.75,5.62c.84,1.67,1.16,2.91.91,3.16s-1.47,0-3.15-.45-3.85-1-6-1.44a6.43,6.43,0,0,1-4.32-2.62A4.66,4.66,0,0,1,99.36,259.29Z"/><path class="cls-9" d="M99.36,259.29a4.09,4.09,0,0,1,3.78-2.62,6.92,6.92,0,0,1,5,2.87,32.62,32.62,0,0,1,3.75,5.62c.84,1.67,1.16,2.91.91,3.16s-1.47,0-3.15-.45-3.85-1-6-1.44a6.43,6.43,0,0,1-4.32-2.62A4.66,4.66,0,0,1,99.36,259.29Z"/><path class="cls-10" d="M95.38,253.43l-.25.19L96.76,258s-.87-.36-1.77-.65c-.44-.16-.89-.29-1.23-.38l-.56-.17,0,.16,0,.16.56.16c.33.1.78.22,1.22.38.89.29,1.75.65,1.75.65A14.25,14.25,0,0,0,93,260.75L93,261a14.73,14.73,0,0,1,4-2.62l.66.29c.4.17.92.4,1.44.65s1,.5,1.42.7l.64.33a18.65,18.65,0,0,0-6.26,3.76l.18.16a18.16,18.16,0,0,1,6.44-3.73s1,.54,2,1.13,2,1.21,2,1.21A20.06,20.06,0,0,0,99,266l.34.06a20,20,0,0,1,6.5-2.91l.61.4,1.31.89c.94.67,1.85,1.37,1.85,1.37a19.23,19.23,0,0,0-4.39,1.32l.47.09a17.91,17.91,0,0,1,4.24-1.17l.44.36c.27.22.62.5,1,.8s.69.6.93.84l.42.38a.36.36,0,0,0,.15-.08.53.53,0,0,0,.08-.15l-.42-.39c-.25-.24-.59-.55-.94-.85l-1-.81-.45-.36c0-.28-.21-2-.27-4.51l-.3-.43c0,2.25.18,4,.25,4.7,0,0-.92-.71-1.86-1.38l-1.32-.9-.61-.39a54,54,0,0,1-.86-7.34l-.31-.29a57.4,57.4,0,0,0,.84,7.41s-1-.63-2-1.21-2-1.14-2-1.14a72.13,72.13,0,0,1-1.62-7.62l-.31-.06c.61,3.66,1.29,6.49,1.58,7.49l-.65-.33c-.38-.2-.9-.46-1.43-.71s-1-.48-1.45-.65l-.67-.29C97,257.84,96.35,256.06,95.38,253.43Z"/><path class="cls-12" d="M111.28,263.58c-1,.49-1.93,1.15-3,1.64a8.27,8.27,0,0,1-4.46.49A16.23,16.23,0,0,1,96.08,263a11.55,11.55,0,0,1-3.22-3.24c0,.23,0,.47.07.69A6.12,6.12,0,0,0,94,263.17c1.11,1.53,3.07,2.52,6,3s6,1.1,8.39,1.61,4.06.91,4.42.55-.1-2.12-1.37-4.45Z"/><path class="cls-8" d="M193.43,235.55a15,15,0,0,1-.14,5.79,11.33,11.33,0,0,1-2.17,4.61c-2.15,2.77-5.65,4.87-10.51,7a38.07,38.07,0,0,0-6.91,4,35.72,35.72,0,0,0-5.5,5c-3,3.41-4.74,6.51-5.58,6.4s-2.16-3.45-2-9.12a33.8,33.8,0,0,1,1.86-9.65,42.37,42.37,0,0,1,5.33-10.37,25.87,25.87,0,0,1,7.89-7.5,18.15,18.15,0,0,1,8.18-2.74,10.21,10.21,0,0,1,6.47,1.56A7.37,7.37,0,0,1,193.43,235.55Z"/><path class="cls-8" d="M180.76,241a7.76,7.76,0,0,1,.42,7.73c-1.15,2.44-3.37,4.54-6.58,6.82a36.35,36.35,0,0,0-4.54,3.83,42.4,42.4,0,0,0-3.61,4.15c-2,2.67-3.23,4.84-3.83,4.77s-1.47-2.43-1.66-6.33a30.54,30.54,0,0,1,.52-6.73,34.8,34.8,0,0,1,2.4-7.63,18.9,18.9,0,0,1,4.26-6.16,13,13,0,0,1,5-3.07C176.39,237.39,179.13,238.43,180.76,241Z"/><path class="cls-9" d="M180.76,241a7.76,7.76,0,0,1,.42,7.73c-1.15,2.44-3.37,4.54-6.58,6.82a36.35,36.35,0,0,0-4.54,3.83,42.4,42.4,0,0,0-3.61,4.15c-2,2.67-3.23,4.84-3.83,4.77s-1.47-2.43-1.66-6.33a30.54,30.54,0,0,1,.52-6.73,34.8,34.8,0,0,1,2.4-7.63,18.9,18.9,0,0,1,4.26-6.16,13,13,0,0,1,5-3.07C176.39,237.39,179.13,238.43,180.76,241Z"/><path class="cls-10" d="M193,242.29l.14-.47a16.1,16.1,0,0,0-4-2.45,20,20,0,0,0-2.95-1s1.75-.84,3.58-1.48a26,26,0,0,1,3.71-1l0-.26-.05-.26a26.3,26.3,0,0,0-3.8,1.06c-1.85.65-3.63,1.5-3.63,1.5.3-.61.77-1.62,1.4-2.93s1.43-2.91,2.52-4.73l-.52-.28c-1.32,2.28-2.23,4.23-2.92,5.67l-1.24,2.64s-2.18,1.06-4.22,2.35a46.88,46.88,0,0,0-4,2.78c.4-1.89,1.59-7.16,3.2-13.7q-.33.09-.66.21c-1.8,7.5-3,13.28-3.19,14a45.24,45.24,0,0,0-3.6,3.24,42.37,42.37,0,0,0-3.2,3.65c0-.48,0-1.17,0-2s0-1.92,0-3.11c0-2.39.05-5.39.11-8.7l-.6.74c-.06,3.7-.09,7-.05,9.4s.11,4,.12,4.37l-.88,1.24c-.5.76-1.16,1.78-1.74,2.85a35.92,35.92,0,0,0-2,4.4c-.46-1.32-1.46-4.33-2.48-8.45l-.3,1.12c1.18,4.58,2.35,7.61,2.48,8.12,0,0-.62,1.82-1.06,3.69-.18.94-.4,1.88-.48,2.6l-.17,1.19a.53.53,0,0,0,.26.13.55.55,0,0,0,.28-.07s.06-.47.16-1.17.29-1.63.47-2.56c.43-1.84,1.05-3.63,1.05-3.63a17.11,17.11,0,0,1,2.29-1.18,18.76,18.76,0,0,1,5-1.36l.66-.54a18.92,18.92,0,0,0-7.68,2.3,34.1,34.1,0,0,1,2-4.34c.57-1,1.22-2.05,1.71-2.8l.87-1.22a20,20,0,0,1,4.13-.59,22.15,22.15,0,0,1,8.16,1.28l.56-.26a22.23,22.23,0,0,0-7.48-1.52,20,20,0,0,0-4.86.43,40.06,40.06,0,0,1,3.15-3.59,46.38,46.38,0,0,1,3.55-3.21,20.9,20.9,0,0,1,4.37.46,23.33,23.33,0,0,1,8,3.33l.34-.3a23.39,23.39,0,0,0-12.08-4,44.74,44.74,0,0,1,3.93-2.74c2-1.28,4.18-2.34,4.18-2.34a18.55,18.55,0,0,1,2.7.82A17.19,17.19,0,0,1,193,242.29Z"/><path class="cls-11" d="M191.8,241.66c-5.74,1.51-11.46,3.06-16.65,6a37.53,37.53,0,0,0-11.81,11,.08.08,0,0,1-.15,0,55.7,55.7,0,0,1-1.78-5.34,32,32,0,0,0-.78,5.85c-.17,5.67,1.25,9.05,2,9.12s2.53-3,5.58-6.4a35.72,35.72,0,0,1,5.5-5,38.07,38.07,0,0,1,6.91-4c4.86-2.14,8.36-4.24,10.51-7a11.33,11.33,0,0,0,2.17-4.61.29.29,0,0,0,0-.09Z"/><path class="cls-8" d="M202.64,254.05a9.13,9.13,0,0,1-1.95,4.58,10.65,10.65,0,0,1-1.7,1.65,12,12,0,0,1-2.09,1.26c-3.06,1.45-7.07,1.91-12.29,1.93a49.52,49.52,0,0,0-7.75.64,43.71,43.71,0,0,0-6.86,1.73c-4.05,1.35-6.81,3-7.38,2.48s.24-3.62,3.15-7.82a35.72,35.72,0,0,1,5.88-6.49,47.76,47.76,0,0,1,8.46-5.8,25.81,25.81,0,0,1,9.16-3,19.46,19.46,0,0,1,4.09-.07,14.27,14.27,0,0,1,3.5.72,10.38,10.38,0,0,1,2.77,1.37,7.23,7.23,0,0,1,1.92,1.9A6.81,6.81,0,0,1,202.64,254.05Z"/><path class="cls-8" d="M189.84,254.21a6.1,6.1,0,0,1-.53,3.51,7.6,7.6,0,0,1-2.3,2.66c-2,1.49-4.95,2.38-8.72,3a47.48,47.48,0,0,0-10.43,3c-.71.31-1.38.6-2,.85s-1.09.53-1.55.72c-.9.39-1.52.56-1.7.41s-.12-.76.2-1.74a15.68,15.68,0,0,1,.67-1.73q.47-.94,1.14-2.1a35.28,35.28,0,0,1,8.92-9.62c3.92-3,8.08-4,11.07-3.59a6.29,6.29,0,0,1,3.61,1.52A5,5,0,0,1,189.84,254.21Z"/><path class="cls-9" d="M189.84,254.21a6.1,6.1,0,0,1-.53,3.51,7.6,7.6,0,0,1-2.3,2.66c-2,1.49-4.95,2.38-8.72,3a47.48,47.48,0,0,0-10.43,3c-.71.31-1.38.6-2,.85s-1.09.53-1.55.72c-.9.39-1.52.56-1.7.41s-.12-.76.2-1.74a15.68,15.68,0,0,1,.67-1.73q.47-.94,1.14-2.1a35.28,35.28,0,0,1,8.92-9.62c3.92-3,8.08-4,11.07-3.59a6.29,6.29,0,0,1,3.61,1.52A5,5,0,0,1,189.84,254.21Z"/><path class="cls-10" d="M200.1,259.29l.3-.32a21.34,21.34,0,0,0-2.81-3.23,25.3,25.3,0,0,0-2.16-1.78h1.13c.67,0,1.57,0,2.46,0l1.32.06,1.14.11,1.12.11,0-.22,0-.23-1.13-.11-1.16-.11-1.33-.06c-.9-.06-1.81-.06-2.49,0h-1.13l5.83-4.74c-.1-.13-.21-.25-.33-.38l-6.28,5.16s-2.23.1-4.45.39c-1.11.16-2.21.36-3,.49l-1.37.3c1.1-1.37,4.22-5,7.85-9.52l-.62-.05c-4.14,5.19-7.54,9.24-8,9.74a13.81,13.81,0,0,0-1.35.34c-.81.23-1.9.49-2.95.88l-1.56.53c-.49.18-.94.38-1.33.53l-1.29.53c.42-.7,1.17-2.15,2.2-4l1.69-3.07c.62-1.09,1.27-2.28,1.94-3.56l-.76.35c-1.5,2.81-2.89,5.32-3.92,7.18l-1.86,3.4-1.26.62c-.77.34-1.72.92-2.7,1.47a15.71,15.71,0,0,0-1.39.88l-1.19.81a7.5,7.5,0,0,0-.82.59l-.3.24c.08-.3.18-.7.31-1.18s.3-1,.48-1.66.39-1.35.61-2.13.49-1.58.77-2.46l-.74.72c-.15.49-.3,1-.43,1.4s-.26.91-.37,1.32l-.63,2.17c-.34,1.27-.55,2.08-.61,2.31l-.87.69c-.5.43-1.13,1.06-1.78,1.66l-.49.46-.42.48-.76.85-.74.82a.39.39,0,0,0,.12.22.45.45,0,0,0,.23.07l.73-.82.75-.84.42-.47.47-.44c.65-.6,1.27-1.22,1.77-1.65l.85-.68a17.72,17.72,0,0,1,2.29.05c.63.07,1.34.17,2.1.32l1.18.27c.42.11.85.25,1.28.4l.8-.16c-.76-.29-1.5-.54-2.22-.74s-1.37-.3-2-.39-1.18-.16-1.67-.2-.87,0-1.18,0l.3-.23a8.56,8.56,0,0,1,.81-.6l1.18-.79a14,14,0,0,1,1.37-.87c1-.54,1.91-1.12,2.67-1.46l1.25-.61a20.34,20.34,0,0,1,3.57,1.1,22.22,22.22,0,0,1,6.25,3.9l.61,0a25.1,25.1,0,0,0-2.84-2.24,23.63,23.63,0,0,0-2.78-1.58,22.69,22.69,0,0,0-4.11-1.48l1.28-.53c.39-.15.83-.35,1.32-.53l1.54-.52c1-.38,2.12-.64,2.92-.87a13.81,13.81,0,0,1,1.35-.34,21.71,21.71,0,0,1,3.45,1.88,22.72,22.72,0,0,1,5.61,5.29l.42-.11a22.91,22.91,0,0,0-8.73-7.23l1.35-.29c.82-.14,1.92-.33,3-.49,2.21-.29,4.42-.39,4.42-.39a15.56,15.56,0,0,1,2,1.53A21.33,21.33,0,0,1,200.1,259.29Z"/><path class="cls-9" d="M201.71,249.43a7.55,7.55,0,0,1,.37,1.63,6.44,6.44,0,0,1-.74,3.83,8.47,8.47,0,0,1-3.5,3.21c-3.43,1.89-7.46,2.42-11.32,2.64-2,.11-3.94.13-5.91.15a46.87,46.87,0,0,0-6.81.35,18.73,18.73,0,0,0-3.4.82,8.65,8.65,0,0,1-2.81.91,10.46,10.46,0,0,1-3-.55c-1.88,3.23-2.34,5.58-1.93,5.9.57.47,3.33-1.13,7.38-2.48a43.71,43.71,0,0,1,6.86-1.73,49.52,49.52,0,0,1,7.75-.64c5.22,0,9.23-.48,12.29-1.93a12,12,0,0,0,2.09-1.26,10.65,10.65,0,0,0,1.7-1.65,9.13,9.13,0,0,0,1.95-4.58A6.83,6.83,0,0,0,201.71,249.43Z"/><path class="cls-13" d="M92,80.24c-3,6.78-.89,14.41-.89,14.41l-6.92,23.84a11.68,11.68,0,0,0,7.27,14.25c9.24,3.31,22.12,8.23,27.57,11.74V128l-21.6-8.19a1.18,1.18,0,0,1-.73-1.32L101,96.76A14.75,14.75,0,0,0,105.06,94c2.7-2.79,2.91-4.51,3.63-6.14,1.26-2.82,3.82-5.11,3-6.16-1-1.24-3.09,0-4.25,1.71-1,1.53-1.47,3.94-2.71,3.87-.57,0-.32-3.07-.32-3.07Z"/><g class="cls-14"><path class="cls-13" d="M96.22,82.94a13.43,13.43,0,0,0,1,4.53,12.3,12.3,0,0,1,.9,7.84s2.33-2.7,2.57-5.1S97.35,85.46,96.22,82.94Z"/></g><path class="cls-13" d="M92.05,80.25s2.3-5.42,3.5-6.62,4.35-4.48,5.64-2.7c.94,1.3-2.06,3.33-3,5.18a54.11,54.11,0,0,0-2.29,5.38Z"/><path class="cls-13" d="M94.77,81.15s2.45-5.75,3.73-7,4.62-4.76,6-2.87c1,1.38-2.19,3.54-3.24,5.51a57.36,57.36,0,0,0-2.43,5.71Z"/><path class="cls-13" d="M97.24,82s2.59-6.09,4-7.44,5.32-5.63,6.77-3.63c1.06,1.46-2.75,4.33-3.87,6.41a61.31,61.31,0,0,0-2.56,6.06Z"/><path class="cls-13" d="M100.26,83s2.45-5.75,3.73-7,4.61-4.77,6-2.88c1,1.39-2.18,3.54-3.24,5.51a57.22,57.22,0,0,0-2.42,5.72Z"/><g class="cls-14"><path class="cls-13" d="M97.47,119.83a1.18,1.18,0,0,1-.73-1.32L101,96.76A14.75,14.75,0,0,0,105.06,94c2.7-2.79,2.91-4.51,3.63-6.14,1.26-2.82,3.82-5.11,3-6.16-1-1.24-3.09,0-4.25,1.71-1,1.53-1.47,3.94-2.71,3.87-.57,0-.32-3.07-.32-3.07h0a56.18,56.18,0,0,1,2.37-5.58c1.06-2,4.25-4.12,3.24-5.51-.57-.78-1.48-.63-2.43-.11.54-.8.81-1.53.42-2.06a.93.93,0,0,0-.14-.14c-.42.23-.84.47-1.25.73a16.91,16.91,0,0,0-4.47,4.13,7.48,7.48,0,0,0-1.67,5.4c.28,1.93,1.39,3.61,2.29,5.31s1.68,3.32,1.43,5.15A4.39,4.39,0,0,1,103.06,94a5.7,5.7,0,0,1-2,1.19,8.1,8.1,0,0,0-1.36.65c-.22.14-.52.26-.52.53a3.57,3.57,0,0,1,0,.73c-.13.63-.36,1.25-.55,1.86-.39,1.3-.78,2.58-1,3.91s-.53,2.63-.82,4c-.56,2.58-1.18,5.15-2,7.67-.35,1.09-.77,2.16-1.11,3.25a5.3,5.3,0,0,0-.34,2c.13,1.46,1.84,2.17,3,2.72a5,5,0,0,1,1.94,1.07,2.71,2.71,0,0,1,.28,1.82c0,1.74-.45,3.77-2,4.78a7.66,7.66,0,0,1-5.07.8A10.07,10.07,0,0,1,87,129.2a7.37,7.37,0,0,1-1.59-1.51,11.64,11.64,0,0,0,6.1,5.05c9.24,3.31,22.12,8.23,27.57,11.74V128Z"/></g><path class="cls-15" d="M119.57,127.47v18.34a24,24,0,0,0-4.65-2.77c-3.35-1.65-16-2.67-16-2.67s-1.71-7.89,2.81-19.61c0,0,15.31,5.27,16.84,6.55Z"/><path class="cls-16" d="M103.62,122.34s-3.15,8.67-2.33,16.79"/><path class="cls-17" d="M118,128.56a10.33,10.33,0,0,0-1.19,2.4c-.5,1.44-.85,2.94-1.49,4.33a5.53,5.53,0,0,1-2.35,2.74,7.88,7.88,0,0,1-4.56.77c-2.73-.28-5.7-1.47-7.3-3.8a11.09,11.09,0,0,1-1.44-7.14c0-.14,0-.28,0-.42-1.83,7.93-.76,12.93-.76,12.93s12.64,1,16,2.67a24,24,0,0,1,4.65,2.77V127.47l-.67-.1C118.58,127.75,118.26,128.15,118,128.56Z"/><path class="cls-18" d="M156.18,151.26l2.14-1.34a1.2,1.2,0,0,1,1-.14l-7.82-1.52-3.54,1.1Z"/><path class="cls-19" d="M156.18,151.26l2.14-1.34a1.2,1.2,0,0,1,1-.14l-7.82-1.52-3.54,1.1Z"/><path class="cls-18" d="M156.18,151.26l2.14-1.34a1.23,1.23,0,0,1,1.83.67l2.15,6.75a3.39,3.39,0,0,1-.93,3.54,16.37,16.37,0,0,1-3,2.18Z"/><path class="cls-19" d="M161.47,158.33a4.74,4.74,0,0,1-1.12-1.2,15.88,15.88,0,0,1-1.29-2.13,22.15,22.15,0,0,1-1.73-4.46l-1.15.72,2.24,11.8a16.37,16.37,0,0,0,3-2.18,3.39,3.39,0,0,0,1.09-2.48A.85.85,0,0,1,161.47,158.33Z"/><path class="cls-19" d="M159.49,157c-.49-1-.9-2-1.32-3s-.65-2.23-1-3.34l-1,.62,2.24,11.8a16.37,16.37,0,0,0,3-2.18,3.57,3.57,0,0,0,.45-.51A13.45,13.45,0,0,1,159.49,157Z"/><path class="cls-18" d="M150.94,172.26s-3.3-25.57-4.8-36.71c-.72-5.39-8.5-7-11.32-7a9.9,9.9,0,0,0-4.11.75s4.26-3.39,11.89-2.11c8.16,1.36,10,5.94,12.56,15.53,2,7.25,3.89,15.5,4.71,19.08a4.49,4.49,0,0,1-.67,3.58C157.76,167.48,154.93,170.83,150.94,172.26Z"/><path class="cls-19" d="M159.18,165a4.24,4.24,0,0,1-4.51-1.91,14.8,14.8,0,0,1-2.07-4.29,32.9,32.9,0,0,1-1.32-6.82c-.49-4.73-.4-9.54-1.42-14.2a26.86,26.86,0,0,0-1-3.32,10.24,10.24,0,0,0-1.57-3,7.33,7.33,0,0,0-4.53-2.7c-1.35-.18-2.72-.22-4.06-.51a3.77,3.77,0,0,1-2.17-1.07,13.21,13.21,0,0,0-5.86,2.2,9.9,9.9,0,0,1,4.11-.75c2.82,0,10.6,1.58,11.32,7,1.5,11.14,4.8,36.71,4.8,36.71,4-1.43,6.82-4.78,8.26-6.85a5,5,0,0,0,.34-.59A2.2,2.2,0,0,1,159.18,165Z"/><path class="cls-20" d="M152.62,167.19a18.26,18.26,0,0,1-2.15-4.66,40.31,40.31,0,0,1-1-5.35,16.67,16.67,0,0,0-1-4.13c1.28,9.86,2.49,19.21,2.49,19.21a14.54,14.54,0,0,0,4.24-2.47A7.33,7.33,0,0,1,152.62,167.19Z"/><path class="cls-21" d="M139,127.22c8.17,1.36,10,5.94,12.56,15.53.68,2.49,1.35,5.09,2,7.58"/><path class="cls-18" d="M150.94,172.26s-3.3-25.57-4.8-36.71c-.72-5.39-8.5-7-11.32-7-4.68,0-7.08,2-7.49,6s-.06,29.38-.06,29.38Z"/><path class="cls-22" d="M150.94,172.26s-3.3-25.57-4.8-36.71c-.72-5.39-8.5-7-11.32-7-4.68,0-7.08,2-7.49,6s-.06,29.38-.06,29.38Z"/><line class="cls-21" x1="148.98" y1="152.36" x2="156.18" y2="149.17"/><rect class="cls-13" x="125.86" y="122.64" width="8.96" height="10.75"/><g class="cls-14"><path class="cls-13" d="M129.28,128a19.82,19.82,0,0,0,5.54-1.26v-4.12h-9v5.16A13.08,13.08,0,0,0,129.28,128Z"/></g><g class="cls-14"><path class="cls-13" d="M128.47,126.79a25.52,25.52,0,0,0,6.35-2.07v-2.08h-9v4.29A12,12,0,0,0,128.47,126.79Z"/></g><path class="cls-13" d="M130.34,129.81l11.54,1.44a3.52,3.52,0,0,1,3.06,3.15l5.11,52.73H113.32c0-29,5.75-59.11,5.75-59.11Z"/><path class="cls-13" d="M150.05,187.13,153.92,229l3.79,35.25s12.33,3.16,15,6.63H149.18v-6.63c-1.43-9.39-10.65-25.75-8.85-35.25l-8.2-41.89Z"/><path class="cls-13" d="M113.32,187.13,115.84,229l3,35.25s-12.32,3.16-15,6.63h23.54v-6.63c1.43-9.39,3.86-25.75,2.06-35.25l1.8-41.89Z"/><path class="cls-23" d="M158.47,263.62l-3.73-34.68-3.87-41.83-1.25-13a45.12,45.12,0,0,1-5.87,1.16c-2,.24-3.93.32-5.9.4s-4,.13-6,.12a79.5,79.5,0,0,1-12-.93,39.4,39.4,0,0,1-6.88-1.39c-.53,8-.44,13.76-.44,13.76L115,229.09,118,263.65a36,36,0,0,0,5,.68,26.72,26.72,0,0,0,5.26,0c4.75-30.84,3.72-74,3.72-74s3.56,40.61,12.5,61.23a55.23,55.23,0,0,1,3.94,12.79,33.25,33.25,0,0,0,5.62.12A26.6,26.6,0,0,0,158.47,263.62Z"/><path class="cls-24" d="M131.51,196.08c-.25,1.42-.41,2.86-.57,4.3-.32,2.77-.56,5.54-.76,8.32-.39,5.49-.71,11-1,16.49a153.49,153.49,0,0,1-1.35,16.17c-.21,1.26-.47,2.51-.71,3.76a29.74,29.74,0,0,1-.63,3,5,5,0,0,1-1.14,2.16,4.84,4.84,0,0,1-2.62,1.23,13.65,13.65,0,0,1-3.44.06c-.79-.06-1.59-.08-2.38-.09l1,12.19a36,36,0,0,0,5,.68,26.72,26.72,0,0,0,5.26,0c3.93-25.52,3.9-59.47,3.77-70.43C131.81,194.62,131.64,195.35,131.51,196.08Z"/><path class="cls-24" d="M154.74,228.94l-3.87-41.83-1.25-13a45.12,45.12,0,0,1-5.87,1.16c-2,.24-3.93.32-5.9.4s-4,.13-6,.12a79.5,79.5,0,0,1-12-.93,39.4,39.4,0,0,1-6.88-1.39c-.53,8-.44,13.76-.44,13.76l.07,1.21a19.6,19.6,0,0,0,5.08,1.42c1.91.34,3.85.54,5.78.75,2.16.24,4.3.56,6.47.68.68,0,1.36.06,2,.08,0-.73,0-1.11,0-1.11s0,.39.1,1.11c4.42.1,8.84-.17,13.26-.09a.09.09,0,0,1,.08.06c1,5.74.2,11.6.88,17.36.64,5.33,1.56,10.64,2.55,15.92s2.11,10.48,3.37,15.68c.44,1.79,1,3.58,1.33,5.4.22,1.27.31,2.85-.7,3.82a4.68,4.68,0,0,1-2.24,1c-1,.27-2.09.52-3.12.84a19,19,0,0,0-2.66,1,54.53,54.53,0,0,1,3.59,11.95,33.25,33.25,0,0,0,5.62.12,26.6,26.6,0,0,0,4.49-.83Z"/><path class="cls-25" d="M122.67,253.29a12.74,12.74,0,0,0-1.1,2.67c0-.66,0-1.25-.07-1.77a1.08,1.08,0,0,0-1-1c-1.54-.07-2.83-.17-3.83-.27l.88,10.39c-3.18.88-12.18,3.6-14.66,6.81a2.83,2.83,0,0,0-.85,2h26.6v-7.78c.42-2.8,1-6.33,1.44-10.17A36.3,36.3,0,0,0,122.67,253.29Z"/><path class="cls-26" d="M127.24,253.66a20.28,20.28,0,0,1-.82,5.28,6.17,6.17,0,0,1-.48,1.19,4.45,4.45,0,0,1-.74.83c-.5.47-1.75,1.4-.84,2.06a.09.09,0,0,1,0,.13,4.81,4.81,0,0,0-.77,2.56,8.62,8.62,0,0,1-.65,2.5,9.43,9.43,0,0,1-3,3.67l-.42.26h9.06v-7.78c.42-2.8,1-6.33,1.44-10.17C129.34,254,128.39,253.83,127.24,253.66Z"/><path class="cls-25" d="M173.7,270.15c-2.53-3.28-11.84-6-14.85-6.86l-1.12-10.36c-.93.1-2.14.2-3.6.27a1.07,1.07,0,0,0-1,1c-.05.52-.08,1.12-.08,1.79a12.79,12.79,0,0,0-1.09-2.68c-.8,0-5.51.42-7.06.75A62.06,62.06,0,0,1,148,264.36v7.78h26.42A4,4,0,0,0,173.7,270.15Z"/><path class="cls-26" d="M156.18,258.53a7.1,7.1,0,0,1-.31,2.56c-.26.6-.8,1-1.12,1.5s.34,1.21.84,1.46c.28.14.6.22.88.37a1.59,1.59,0,0,1,.41.48c.36.48.88.38,1.42.44a5,5,0,0,1,.77.15,14.2,14.2,0,0,1,1.92.59c2.18.84,5.15,2.72,3.91,5.47a3.47,3.47,0,0,1-.34.59h9.81a4,4,0,0,0-.67-2c-2.53-3.28-11.84-6-14.85-6.86l-1.12-10.36c-.6.06-1.34.13-2.17.18A13.65,13.65,0,0,1,156.18,258.53Z"/><path class="cls-15" d="M129.31,273.88h-28V273a.87.87,0,0,1,.88-.88h26.2a.88.88,0,0,1,.89.88Z"/><path class="cls-17" d="M128.42,272.14h-8.87a13.42,13.42,0,0,1-3.64,1.54l-.83.2h14.23V273A.88.88,0,0,0,128.42,272.14Z"/><path class="cls-15" d="M175.1,273.88h-28V273a.87.87,0,0,1,.88-.88h26.2a.88.88,0,0,1,.89.88Z"/><path class="cls-17" d="M174.21,272.14h-9.65a5.6,5.6,0,0,1-2.29,1.74H175.1V273A.88.88,0,0,0,174.21,272.14Z"/><path class="cls-15" d="M142.13,130.66l-6.85-.85a9.25,9.25,0,0,1-5.1.85c-1.67-.12-3.83-.5-4.51-2.22l-7.09-1.13a121.09,121.09,0,0,0-5.26,31c-1.15,9.09-2.8,18.39-2.33,28.5,17.85,4.73,42-.47,42-.47a131.55,131.55,0,0,0-4-17.39l-3.37-34.79A3.92,3.92,0,0,0,142.13,130.66Z"/><path class="cls-17" d="M115.1,173.54a13.65,13.65,0,0,1,4.74-1.52c1.77-.29,3.57-.41,5.35-.59a23.28,23.28,0,0,0,5.62-1.14,15,15,0,0,0,4.62-2.78,21.61,21.61,0,0,0,3.69-4.07,8.56,8.56,0,0,0,1-1.83,9.09,9.09,0,0,1,.69-1.6.87.87,0,0,1,.94-.44c.63,0,1.24.23,1.87.3a1.82,1.82,0,0,0,1.76-.81,5.61,5.61,0,0,0,.58-1.93c0-.09.13-.07.16,0,.95,2.51,1.66,5.1,2.39,7.69l-3-30.65a3.92,3.92,0,0,0-3.41-3.51l-.37,0a24.31,24.31,0,0,0-3.58,1.95,15.05,15.05,0,0,0-4.15,4.55,46,46,0,0,0-2.66,5.06,11.77,11.77,0,0,1-1.24,2.15,22.87,22.87,0,0,1-1.65,1.88c-.57.6-1.13,1.19-1.65,1.83s-1.11,1.5-.64,2.49c.24.51.47.94.1,1.46a3.91,3.91,0,0,1-1.61,1.06,27.52,27.52,0,0,1-4.93,1.75,8.59,8.59,0,0,1-4.09.2,4,4,0,0,1-2-1.27c-.12,1.49-.22,3-.3,4.59-.8,6.33-1.84,12.77-2.24,19.5A11.62,11.62,0,0,1,115.1,173.54Z"/><path class="cls-17" d="M112.54,170.84a5.64,5.64,0,0,1,2.71-.55c1,0,2,.07,3,0s2.07-.13,3.11-.22a50.05,50.05,0,0,0,5.85-.76,17.74,17.74,0,0,0,5.32-1.77c3-1.75,4.2-5.15,6.21-7.78a3,3,0,0,1,1.31-1.1,4.84,4.84,0,0,1,2,0,3.78,3.78,0,0,0,1.46,0,1.71,1.71,0,0,0,.95-.79,9.83,9.83,0,0,0,1.07-2.27,29.35,29.35,0,0,0,1.14-5.16c.09-.64.17-1.28.25-1.92l-1.39-14.38a3.91,3.91,0,0,0-.57-1.66,19.62,19.62,0,0,1-1.25,4.43c-.76,1.94-1.7,3.82-2.59,5.71a122.18,122.18,0,0,1-5.65,11,37.27,37.27,0,0,1-3.28,4.86,13.89,13.89,0,0,1-3.73,3.14c-3.12,1.81-6.73,2.49-10.23,3.14-2,.38-4,.73-6,1.3-.24,1.78-.46,3.59-.66,5.41A4.81,4.81,0,0,1,112.54,170.84Z"/><path class="cls-16" d="M112.55,184.22c13.6,2.89,31.74.84,38.39-.3"/><path class="cls-16" d="M135.28,131.6a9.25,9.25,0,0,1-5.1.86c-1.67-.12-4.57-.7-5.25-2.41"/><path class="cls-13" d="M119.56,123.68l2.84.62c6.4,1.4,19.18.14,22.89-5.26l.23-.32.37-.06a16.11,16.11,0,0,0,12.77-10.82l3-8.85a25.13,25.13,0,0,0-18.47-32.5l-4.22-.92A25.21,25.21,0,0,0,108.7,85.91l-3,17.23A17.91,17.91,0,0,0,119.56,123.68Z"/><g class="cls-14"><path class="cls-13" d="M143.14,66.49l-4.22-.92A25.21,25.21,0,0,0,108.7,85.91l-1.19,6.9a4.33,4.33,0,0,0,1.12.31,4,4,0,0,0,3.23-1,8.67,8.67,0,0,0,1.4-2.72,3.57,3.57,0,0,1,.88-1.29,4.94,4.94,0,0,1,1.25-.75c.94-.4,2-.52,2.91-.9a7.43,7.43,0,0,0,2.91-2.2,12.45,12.45,0,0,1,2.3-2.23c.39-.27.77-.56,1.18-.79a.7.7,0,0,1,.46-.14.61.61,0,0,1,.3.2,3.29,3.29,0,0,0,.66.52,8,8,0,0,0,3.42.91,5.57,5.57,0,0,0,2.76-.53c1.78-.85,3.11-2.47,4.49-3.82s3-3,5-2.3a7.88,7.88,0,0,1,2.54,1.74,7.35,7.35,0,0,1,1.92,2.34c.66,1.49.1,3-.41,4.46a16,16,0,0,0-1.2,7.23A7.07,7.07,0,0,0,146,95.38a28.19,28.19,0,0,1,2,2.55,3,3,0,0,1,.42,2.25,9.14,9.14,0,0,1-1.09,2.6c-1,1.78-2.2,3.42-3.13,5.23-1.18,2.29-2.07,4.71-3.25,7a18.17,18.17,0,0,1-3.89,5.19,17.6,17.6,0,0,1-4.32,2.8,22.75,22.75,0,0,1-5.78,1.82c6.66.21,15.41-1.46,18.37-5.77l.23-.32.37-.06a16.11,16.11,0,0,0,12.77-10.82l3-8.85A25.13,25.13,0,0,0,143.14,66.49Z"/></g><path class="cls-27" d="M112.73,94.69c-.42,1.93.22,3.71,1.42,4s2.53-1.09,2.95-3-.21-3.71-1.42-4S113.15,92.76,112.73,94.69Z"/><path class="cls-28" d="M118.47,114.14c-.21,1,.11,1.87.72,2s1.27-.55,1.48-1.52-.11-1.87-.71-2S118.68,113.16,118.47,114.14Z"/><line class="cls-29" x1="122.3" y1="108.58" x2="119.07" y2="106.58"/><path class="cls-30" d="M119.57,87.26s-1.36-2.72-6.3-1.38"/><path class="cls-27" d="M141.08,100.88c-.42,1.93-1.94,3.24-3.39,2.92s-2.28-2.14-1.86-4.07,1.94-3.24,3.39-2.93S141.5,98.94,141.08,100.88Z"/><path class="cls-30" d="M137,91.05a18.13,18.13,0,0,0,7.57,1.66"/><path class="cls-27" d="M145.52,118.72c-.17,4.45,5.76,4.47,7.77,3.78a4.9,4.9,0,0,0,2.23-1.83,12.06,12.06,0,0,0,2.32-5.89,5.6,5.6,0,0,1,.76-3c.88-1.1,2.51-1.11,3.89-1.38a8.61,8.61,0,0,0,6.3-11.79c-.8-1.91-2.28-3.52-2.77-5.53-.92-3.8,2-7.57,1.78-11.48-.17-3.12-2.28-5.78-4.5-8a14,14,0,0,0-3.73-2.86,5.77,5.77,0,0,0-4.58-.32c-2.07-7.15-9.91-12.67-17.21-13.73a11.16,11.16,0,0,0-5.47.49c-3.89,1.45-5.77,4.39-9.93,5.55a3.62,3.62,0,0,1-1.9.11,7.57,7.57,0,0,1-1.46-.71,6.39,6.39,0,0,0-9.26,6.66,3.44,3.44,0,0,1,.08,1.15c-.19,1-1.3,1.39-2.19,1.83-3,1.47-6.27,5.56-6.36,8.88s4.59,6.24,6.42,11c3,.13,3.24-6.13,6.67-6.57,3.7-.48,5.33-3.92,7-6.37a3.67,3.67,0,0,1,1.52-1.35c2.79-1.19,4.6,2.79,7.33,2.94,1.7.09,3.19-1.36,4.31-2.33a17.14,17.14,0,0,0,2.65-3,4.4,4.4,0,0,1,3.57-2,3.16,3.16,0,0,1,2.66,1.53,4.52,4.52,0,0,0,3.65,2,1.93,1.93,0,0,1,1.6.62c2,2.46,1.2,7.61.34,10s-1.54,4.94-1,7.41,2.28,5.66,4.81,5.65l2,4.77-4.83,5.61s.17,1-2.23,1.86S143,116.69,145.52,118.72Z"/><g class="cls-14"><path class="cls-27" d="M142.34,72c-1.74-1.55-4.61-1.26-6.41,0a16,16,0,0,0-2.35,2.3,5.66,5.66,0,0,1-2.4,1.82c-1.66.49-3.16-.71-4.4-1.64-1.49-1.13-3.3-2.4-5.22-1.44-.81.41-1.46,1.07-2.25,1.5a3.2,3.2,0,0,1-2.54.34c-1.7-.59-2.73-2.56-3.27-4.15a10.52,10.52,0,0,1-.35-4.83,10.35,10.35,0,0,1,1.58-4.34,6.32,6.32,0,0,0-2.39,1,6.52,6.52,0,0,0-2.58,6.18,3.44,3.44,0,0,1,.08,1.15c-.19,1-1.3,1.39-2.19,1.83-3,1.47-6.27,5.56-6.36,8.88s4.59,6.24,6.42,11c3,.13,3.24-6.13,6.67-6.57,3.7-.48,5.33-3.92,7-6.37a3.67,3.67,0,0,1,1.52-1.35c2.79-1.19,4.6,2.79,7.33,2.94,1.7.09,3.19-1.36,4.31-2.33a17.14,17.14,0,0,0,2.65-3,4.4,4.4,0,0,1,3.57-2,3.16,3.16,0,0,1,2.66,1.53,4.77,4.77,0,0,0,2.73,1.92C144.53,75.29,143.81,73.31,142.34,72Z"/></g><g class="cls-14"><path class="cls-27" d="M168.88,98.86a10.09,10.09,0,0,1-.06,2.63,6.92,6.92,0,0,1-3.07,4.56,4.84,4.84,0,0,1-2.48.86,2.84,2.84,0,0,1-2.2-.66,1.62,1.62,0,0,1,0-1.61,9.9,9.9,0,0,0,.77-3.07,5.18,5.18,0,0,0-3.88-5c-1.08-.29-2.18.18-3.27,0a2.77,2.77,0,0,1-1.62-1.1,6.62,6.62,0,0,1-.94-4.16,42,42,0,0,1,.53-4.61,8.3,8.3,0,0,0-.57-5.11,11.76,11.76,0,0,0-2.75-3.14c1,2.68.37,6.71-.36,8.74-.85,2.38-1.54,4.94-1,7.41s2.28,5.66,4.81,5.65l2,4.77-4.83,5.61s.17,1-2.23,1.86-4.68,4.21-2.16,6.24c-.17,4.45,5.76,4.47,7.77,3.78a4.9,4.9,0,0,0,2.23-1.83,12.06,12.06,0,0,0,2.32-5.89,5.6,5.6,0,0,1,.76-3c.88-1.1,2.51-1.11,3.89-1.38a8.6,8.6,0,0,0,6.39-11.55Z"/></g><path class="cls-8" d="M91,162.81l-25.46-5.92a.82.82,0,0,0-1,.6c-.19.7.47,1.23,1.07,1.86s.93,1,1.37,1.08l25.46,5.93a.78.78,0,0,0,1-.61c.06-.74-.39-.94-.92-1.61S91.61,163,91,162.81Z"/><path class="cls-10" d="M90.65,164.4l-25.46-5.93a.82.82,0,0,1-.61-1h0a.81.81,0,0,1,1-.6L91,162.81a.82.82,0,0,1,.61,1h0A.82.82,0,0,1,90.65,164.4Z"/><path class="cls-13" d="M152.77,100.24l-2.86,10.38s2.8,1.49,6.63-2.68,2.25-8.15-.31-8.71A4.13,4.13,0,0,0,152.77,100.24Z"/><g class="cls-14"><path class="cls-13" d="M150.83,110.8a47.63,47.63,0,0,1,2.46-4.83,23.88,23.88,0,0,1,3.08-4.32,8.11,8.11,0,0,1,1.56-1.33,2.93,2.93,0,0,0-1.7-1.09,4.13,4.13,0,0,0-3.46,1l-2.86,10.38a2.66,2.66,0,0,0,.9.23Z"/></g><path class="cls-18" d="M141.76,130.62s-5.68,1-7.44,8.51c-1.81,7.74,1.08,16.27,4.94,20a19.81,19.81,0,0,0,10.64,5.13l.39,3s-12.45-2-17.18-12.67-2.16-18.94.39-22.11C136.6,128.65,139.54,129.82,141.76,130.62Z"/><path class="cls-19" d="M147.9,166.7a20.54,20.54,0,0,0,2.39.59l-.39-3a18,18,0,0,1-3.58-.88A13.2,13.2,0,0,1,147.9,166.7Z"/><path class="cls-19" d="M139.92,159.75c-.22-.2-.44-.39-.66-.6-3.86-3.75-6.75-12.28-4.94-20,1.76-7.55,7.44-8.51,7.44-8.51a8.81,8.81,0,0,0-4.11-.77,1.48,1.48,0,0,1,.21.37,2,2,0,0,1-.14,1.47,12.78,12.78,0,0,1-2.36,3.22,11.11,11.11,0,0,0-2.13,3.07c-.57,1.37-1,2.83-1.64,4.16a6.24,6.24,0,0,1-1.09,1.59,28.94,28.94,0,0,0,2.61,10.89,19.69,19.69,0,0,0,5.38,7.1A15.47,15.47,0,0,1,139.92,159.75Z"/><path class="cls-18" d="M124.47,128.25s-6.68,16-10.78,24.65a23.05,23.05,0,0,1,.81-7.09s4-14.09,6.17-18.16A4.59,4.59,0,0,1,124.47,128.25Z"/><path class="cls-19" d="M121.29,127.51a9.74,9.74,0,0,1,1,.84,2,2,0,0,1,.78,1.72,7.15,7.15,0,0,1-.82,2c-.38.72-.79,1.42-1.19,2.12s-.77,1.52-1.17,2.27c-.51.95-1.07,1.88-1.64,2.8-1.11,1.77-2.29,3.51-3.37,5.31l-.35,1.21a23.05,23.05,0,0,0-.81,7.09c4.1-8.64,10.78-24.65,10.78-24.65A4.71,4.71,0,0,0,121.29,127.51Z"/><g class="cls-31"><path class="cls-32" d="M130.83,60.55c-2.48.26-7.22,4.83-3.25,6.5a5.1,5.1,0,0,0,3,0c1.86-.39,3-1.07,4.06.93.44.82.45,1.59,1.4,2.09a3.37,3.37,0,0,0,2.71.11c1-.37,1.32-2.19,0-2.38l-.91-.13c-.57-.08-.84-.39-.8-.91-.28-.44-.24-.82-.58-1.27A3.59,3.59,0,0,0,134,64.17c-1.58-.18-2.84.86-4.33.86l-1.47-.45a5.37,5.37,0,0,1,1-1.68c.57-.69,1.25-1.26,1.81-1.95.11-.14.06-.42-.16-.4Z"/></g><g class="cls-31"><path class="cls-32" d="M152.59,80c2,1,1.29,4,3.95,4.59s3.18-2.09,4.74-3.52l-1.5.39c1.53.36,2.63,1.4,4.33,1.07a3.44,3.44,0,0,0,2.7-2.45c.66-1.92-2.46-2.8-3.05-.84-.23.75-3.1-1-4-.75-1.3.34-1.17,1.75-1.91,2.53-2.29,2.38-3.09-3.32-5.32-1.32a.19.19,0,0,0,0,.3Z"/></g><text class="cls-33" transform="translate(38.61 49.59)">404</text><polygon class="cls-34" points="65.56 156.89 91.02 162.81 138.75 45.96 34.73 45.96 65.56 156.89"/><path class="cls-13" d="M101.2,160.6a25.52,25.52,0,0,0-8.24-.55,15.25,15.25,0,0,0-5.31,2s-1,.21-3.94,1.07c-1.51.45-3,1.2-2.47,2.86a2.22,2.22,0,0,0,2.59,1.55s.21,2,1.4,2.7a3.32,3.32,0,0,0,2.43.29s-.74,2.34,2.43,2.91c0,0,1.14,3.39,4.87,1.39a10.26,10.26,0,0,0,7.15-4.27l24.63-2.44a11.7,11.7,0,0,0,7.75-4.06,69.33,69.33,0,0,0,6.26-8.56c4.32-7.05,9.83-21.05,3.92-23.51-6.7-2.79-8.59,4.37-11.59,10.76a95.47,95.47,0,0,1-6.4,11.34S110.33,159.12,101.2,160.6Z"/><g class="cls-14"><path class="cls-13" d="M144.67,132c-6.7-2.79-8.59,4.37-11.59,10.76a91.94,91.94,0,0,1-5.18,9.44c1.68,2.38,3.39,4.84,6.2,5.92a.08.08,0,0,1,.05.12c-2.09,3.07-5.08,5.86-8.77,6.79a29.84,29.84,0,0,1-5.73.64c-2,.09-4.05.15-6.07.23s-4.15.33-6.23.44a21.12,21.12,0,0,1-3.08.06c-.73-.06-1.74-.51-2.42-.06a4.94,4.94,0,0,0-1.17,1.6,10.73,10.73,0,0,1-1,1.37,23.13,23.13,0,0,1-3.37,3.34,6.76,6.76,0,0,1-3.36,1.33,5.61,5.61,0,0,1-1.53.11,4.77,4.77,0,0,1-1.21-.45c.31.68,1.6,2.91,4.79,1.2a10.26,10.26,0,0,0,7.15-4.27l24.63-2.44a11.7,11.7,0,0,0,7.75-4.06,69.33,69.33,0,0,0,6.26-8.56C145.07,148.41,150.58,134.41,144.67,132Z"/></g><path class="cls-15" d="M145.24,131.4c3.93,1.44,3.74,8.35,2.42,13.43-.85,3.28-4.23,13.09-4.23,13.09S137,159.64,128,150.11c0,0,3.5-5.28,4.39-7.89a41.54,41.54,0,0,1,5.49-9.79C139.84,130.27,142.19,130.28,145.24,131.4Z"/><path class="cls-16" d="M130,148.61s1.68,1.6,3.83,3.49,6.85,3.84,9,3.41"/><path class="cls-17" d="M146.1,131.86a14.37,14.37,0,0,1,.9,2.95,13.25,13.25,0,0,1-.36,5.24,35.7,35.7,0,0,1-3.9,9.28c-.92,1.62-1.89,3.82-3.87,4.33a7.22,7.22,0,0,1-3.17-.08,24.82,24.82,0,0,1-3-.75,16.37,16.37,0,0,1-3.23-1.36c-.13-.07-.26-.16-.39-.24,8.37,8.26,14.32,6.69,14.32,6.69s3.38-9.81,4.23-13.09C148.88,140.15,149.12,134,146.1,131.86Z"/><circle class="cls-32" cx="55.48" cy="197.44" r="5.62"/><path class="cls-32" d="M43.71,124.8c-3.36.62-3.87,1.12-4.49,4.49-.62-3.37-1.12-3.87-4.49-4.49,3.37-.62,3.87-1.13,4.49-4.49C39.84,123.67,40.35,124.18,43.71,124.8Z"/><path class="cls-35" d="M33.44,159.79c-2.53.47-2.9.85-3.37,3.37-.46-2.52-.84-2.9-3.37-3.37,2.53-.46,2.91-.84,3.37-3.37C30.54,159,30.91,159.33,33.44,159.79Z"/><circle class="cls-32" cx="186.56" cy="87.26" r="3.37"/><path class="cls-32" d="M210.64,148.26c-1.69.31-1.94.56-2.25,2.24-.31-1.68-.56-1.93-2.25-2.24,1.69-.31,1.94-.56,2.25-2.25C208.7,147.7,209,148,210.64,148.26Z"/><path class="cls-32" d="M189.62,177.82c-2.53.47-2.9.85-3.37,3.37-.46-2.52-.84-2.9-3.37-3.37,2.53-.46,2.91-.84,3.37-3.36C186.72,177,187.09,177.36,189.62,177.82Z"/><path class="cls-32" d="M22.72,140.19c-2.53.46-2.91.84-3.37,3.37-.47-2.53-.84-2.91-3.37-3.37,2.53-.47,2.9-.84,3.37-3.37C19.81,139.35,20.19,139.72,22.72,140.19Z"/><path class="cls-32" d="M203.16,109.32c-3.37.62-3.87,1.12-4.49,4.49-.62-3.37-1.12-3.87-4.49-4.49,3.37-.62,3.87-1.12,4.49-4.49C199.29,108.2,199.79,108.7,203.16,109.32Z"/><circle class="cls-35" cx="177.53" cy="110.88" r="2.25"/></g></g></g></svg>