<svg xmlns="http://www.w3.org/2000/svg" xmlns:xlink="http://www.w3.org/1999/xlink" viewBox="0 0 271.44 377.32"><defs><style>.cls-1{fill:url(#linear-gradient);}.cls-2{fill:#231f20;opacity:0.27;}.cls-3{fill:#b46127;}.cls-4{fill:#d47828;}.cls-5{fill:url(#linear-gradient-2);}.cls-6{fill:#f6901e;}.cls-7{fill:#ffc514;}.cls-8{fill:#fff;}</style><linearGradient id="linear-gradient" x1="99.39" y1="86.11" x2="271.44" y2="86.11" gradientUnits="userSpaceOnUse"><stop offset="0" stop-color="#cb218e"/><stop offset="1" stop-color="#6617cb"/></linearGradient><linearGradient id="linear-gradient-2" x1="0" y1="86.11" x2="172.05" y2="86.11" xlink:href="#linear-gradient"/></defs><g id="Layer_2" data-name="Layer 2"><g id="Слой_1" data-name="Слой 1"><polygon class="cls-1" points="271.44 0.01 172.05 172.21 99.39 172.21 198.77 0.01 271.44 0.01"/><polygon class="cls-2" points="208.39 109.25 172.05 172.21 135.72 109.25 208.39 109.25"/><path class="cls-3" d="M135.72,151.23v21.19H175v5.88H135.72v36.56H196.2V168.33a17.11,17.11,0,0,0-17.1-17.1Z"/><path class="cls-4" d="M96.43,172.42v5.88h39.29v36.56H75.24V168.33a17.1,17.1,0,0,1,17.1-17.1h43.38v21.19Z"/><path class="cls-4" d="M231.11,281.93a95.39,95.39,0,0,1-95.39,95.39V186.55A95.38,95.38,0,0,1,231.11,281.93Z"/><polygon class="cls-5" points="0 0 99.38 172.21 172.05 172.21 72.67 0 0 0"/><path class="cls-6" d="M135.72,186.55V377.32a95.39,95.39,0,1,1,0-190.77Z"/><path class="cls-7" d="M193.63,281.93A57.91,57.91,0,1,1,135.72,224,57.91,57.91,0,0,1,193.63,281.93Z"/><rect class="cls-8" x="71.6" y="241.92" width="23.32" height="23.32" transform="translate(-154.92 133.15) rotate(-45)"/></g></g></svg>