<svg xmlns="http://www.w3.org/2000/svg" xmlns:xlink="http://www.w3.org/1999/xlink" viewBox="0 0 185.41 164.76"><defs><style>.cls-1{fill:#b2b2b2;fill-opacity:0.4;}.cls-2{fill:#fff;}.cls-3{fill:url(#linear-gradient);}.cls-4{font-size:36px;fill:#6617cb;font-family:OpenSans-Bold, Open Sans;font-weight:700;letter-spacing:-0.05em;}.cls-5{fill:url(#linear-gradient-2);}.cls-6{fill:url(#linear-gradient-3);}.cls-7{fill:url(#linear-gradient-4);}.cls-8{fill:url(#linear-gradient-5);}</style><linearGradient id="linear-gradient" x1="164.84" y1="137.33" x2="20.56" y2="-6.95" gradientUnits="userSpaceOnUse"><stop offset="0" stop-color="#250060"/><stop offset="1" stop-color="#cb218e"/></linearGradient><linearGradient id="linear-gradient-2" x1="74.32" y1="82.98" x2="74.32" y2="110.14" gradientUnits="userSpaceOnUse"><stop offset="0" stop-color="#cb218e"/><stop offset="1" stop-color="#6617cb"/></linearGradient><linearGradient id="linear-gradient-3" x1="66.42" y1="96.56" x2="82.21" y2="96.56" xlink:href="#linear-gradient-2"/><linearGradient id="linear-gradient-4" x1="101.43" y1="64.87" x2="101.43" y2="110.37" xlink:href="#linear-gradient-2"/><linearGradient id="linear-gradient-5" x1="83.87" y1="87.62" x2="118.98" y2="87.62" xlink:href="#linear-gradient-2"/></defs><g id="Layer_2" data-name="Layer 2"><g id="OBJECTS"><path class="cls-1" d="M163.92,10.38H27.28C15.51,10.38,6,21.56,6,35.35v74.3c0,13.79,9.54,25,21.31,25H58a11.38,11.38,0,0,1,8.06,3.49l24.39,24.45a7,7,0,0,0,10.22,0L125.1,138.1a11.38,11.38,0,0,1,8.06-3.49h30.76c11.77,0,21.31-11.17,21.31-25V35.35C185.23,21.56,175.69,10.38,163.92,10.38Z"/><path class="cls-2" d="M163.66,3.08H21.74C11.43,3.08,3.08,12.87,3.08,25v80.48c0,12.08,8.35,21.88,18.66,21.88H56.46a8.1,8.1,0,0,1,5.75,2.49l24.85,24.91a7.74,7.74,0,0,0,11.28,0L123.2,129.8a8.1,8.1,0,0,1,5.75-2.49h34.71c10.31,0,18.67-9.8,18.67-21.88V25C182.33,12.87,174,3.08,163.66,3.08Z"/><path class="cls-3" d="M163.66,3.08c10.31,0,18.67,9.79,18.67,21.87v80.48c0,12.08-8.36,21.88-18.67,21.88H129a8.1,8.1,0,0,0-5.75,2.49L98.34,154.71a7.74,7.74,0,0,1-11.28,0L62.21,129.8a8.1,8.1,0,0,0-5.75-2.49H21.74c-10.31,0-18.66-9.8-18.66-21.88V25c0-12.08,8.35-21.87,18.66-21.87H163.66m0-3.08H21.74C9.75,0,0,11.19,0,25v80.48c0,13.76,9.75,24.95,21.74,24.95H56.46A5.1,5.1,0,0,1,60,132l24.85,24.91a10.82,10.82,0,0,0,15.64,0L125.38,132a5.08,5.08,0,0,1,3.57-1.59h34.71c12,0,21.75-11.19,21.75-24.95V25C185.41,11.19,175.65,0,163.66,0Z"/><text class="cls-4" transform="translate(50.15 47.77)">Your </text><rect class="cls-5" x="67.76" y="82.98" width="13.11" height="27.16" rx="2.76"/><path class="cls-6" d="M78.11,83a2.77,2.77,0,0,1,2.76,2.76v21.63a2.77,2.77,0,0,1-2.76,2.77H70.52a2.77,2.77,0,0,1-2.76-2.77V85.74A2.77,2.77,0,0,1,70.52,83h7.59m0-1.34H70.52a4.11,4.11,0,0,0-4.1,4.1v21.63a4.11,4.11,0,0,0,4.1,4.1h7.59a4.11,4.11,0,0,0,4.1-4.1V85.74a4.11,4.11,0,0,0-4.1-4.1Z"/><path class="cls-7" d="M88,110.14a2.77,2.77,0,0,1-2.76-2.77V85.74c0-3.45,10.92-9.71,11.5-13.12.37-2.17-.12-7.75,1.38-7.75,2.56,0,5.82,1,5.82,6.64,0,5-3.26,11.47-3.26,11.47h13.22a3.77,3.77,0,0,1,.85,7.44,3.74,3.74,0,0,1,1.42,2.94A3.78,3.78,0,0,1,113.22,97a3.76,3.76,0,0,1-1.51,6.61,3.77,3.77,0,0,1-2.35,6.72Z"/><path class="cls-8" d="M98.09,64.87c2.56,0,5.82,1,5.82,6.64,0,5-3.26,11.47-3.26,11.47h13.22a3.77,3.77,0,0,1,.85,7.44,3.74,3.74,0,0,1,1.42,2.94A3.78,3.78,0,0,1,113.22,97a3.76,3.76,0,0,1-1.51,6.61,3.77,3.77,0,0,1-2.35,6.72L88,110.14a2.77,2.77,0,0,1-2.76-2.77V85.74c0-3.45,10.92-9.71,11.5-13.12.37-2.17-.12-7.75,1.38-7.75m0-1.33c-2.33,0-2.43,3.06-2.53,6.31a22.15,22.15,0,0,1-.16,2.55c-.2,1.16-3.07,3.63-5.17,5.44-3.41,3-6.36,5.49-6.36,7.9v21.63a4.11,4.11,0,0,0,4.1,4.1l21.37.23a5.12,5.12,0,0,0,4.5-7.56,5.12,5.12,0,0,0,1.5-6.62,5.1,5.1,0,0,0,1.51-6.61,5.12,5.12,0,0,0-3-9.27H102.72c1-2.39,2.53-6.56,2.53-10.13,0-5.14-2.54-8-7.16-8Z"/></g></g></svg>