<svg xmlns="http://www.w3.org/2000/svg" xmlns:xlink="http://www.w3.org/1999/xlink" viewBox="0 0 50 50"><defs><style>.cls-1{isolation:isolate;}.cls-2{fill:#cbecf3;}.cls-3{fill:#6e2e1c;}.cls-4{fill:#9e4228;}.cls-16,.cls-5{fill:#fff;}.cls-6{fill:#fd9a8b;}.cls-12,.cls-7{fill:#fd7058;}.cls-10,.cls-8{opacity:0.55;}.cls-8{fill:url(#Degradado_sin_nombre_7);}.cls-9{fill:#ebb994;}.cls-10{fill:url(#Degradado_sin_nombre_7-2);}.cls-11{fill:#ffd2b0;}.cls-12{opacity:0.45;}.cls-13{fill:#1f2b4a;}.cls-14{fill:#8e51cc;}.cls-15{fill:#a7b9eb;opacity:0.77;mix-blend-mode:hue;}.cls-16{opacity:0.22;}.cls-17{fill:#300621;}</style><linearGradient id="Degradado_sin_nombre_7" x1="24.51" y1="26.36" x2="25.19" y2="37.25" gradientUnits="userSpaceOnUse"><stop offset="0.44" stop-color="#fa0047" stop-opacity="0.53"/><stop offset="1" stop-color="#fa0047" stop-opacity="0"/></linearGradient><linearGradient id="Degradado_sin_nombre_7-2" x1="23.63" y1="8.08" x2="25.21" y2="24.64" xlink:href="#Degradado_sin_nombre_7"/></defs><g class="cls-1"><g id="Layer_2" data-name="Layer 2"><g id="OBJECTS"><circle class="cls-2" cx="25" cy="25" r="25"/><path class="cls-3" d="M34.84,28l1-2a8.11,8.11,0,0,0,.6-5.59c-.7-3,1.41-6.7-.58-10.13a4.17,4.17,0,0,0-5.22-2.15c-1-2.21-3.94-3.42-9.78-2.67,0,0-7.21,1.16-7.12,6.89,0,0-5.32,5.68-.76,9.59l2.23,7.49h0a5.08,5.08,0,0,0,0,1.1A3.49,3.49,0,0,0,16.64,33a4.92,4.92,0,0,0,2.61.58c3.18.09,6.37.11,9.55,0a7.89,7.89,0,0,0,3.91-.78A5,5,0,0,0,34.84,28Z"/><path class="cls-4" d="M22.34,6.31c7.05-.41,8.32,1.81,8.32,1.81-1-2.21-3.94-3.42-9.78-2.67,0,0-6.8,1.1-7.11,6.42A9.85,9.85,0,0,1,22.34,6.31Z"/><path class="cls-4" d="M36.7,15.05h0a7.6,7.6,0,0,0-.82-4.78,4.17,4.17,0,0,0-5.22-2.15S36.08,8.65,36.7,15.05Z"/><path class="cls-5" d="M34.84,39.56c-5.49-2.21-7.29-5-6.83-8.89H22c.46,3.94-1.34,6.68-6.83,8.89S9,44.18,9,44.18A24.44,24.44,0,0,0,25.2,50a24.06,24.06,0,0,0,15.85-5.82S40.32,41.77,34.84,39.56Z"/><path class="cls-6" d="M19.4,37.21l4.18,4.13a2,2,0,0,0,2.6.13L31,37.52a6.82,6.82,0,0,1-3-6.85H22A6.74,6.74,0,0,1,19.4,37.21Z"/><path class="cls-7" d="M28,30.67H22a6.86,6.86,0,0,1-1.11,5,9.15,9.15,0,0,0,8.22,0A6.87,6.87,0,0,1,28,30.67Z"/><path class="cls-8" d="M19.4,37.21l4.18,4.13a2,2,0,0,0,2.6.13L31,37.52a6.82,6.82,0,0,1-3-6.85H22A6.74,6.74,0,0,1,19.4,37.21Z"/><path class="cls-6" d="M17.21,23.5c1,1.93.58,4.15-.95,4.95s-3.59-.11-4.6-2.05-.59-4.15.94-4.95S16.2,21.57,17.21,23.5Z"/><path class="cls-7" d="M16.32,27.19l0-.22a.78.78,0,0,1,0,.14,2.84,2.84,0,0,0-.16-1,4.69,4.69,0,0,0-3.86-3.6,10,10,0,0,1,3.12,2.82c-1.1-.45-2.8.5-2.8.5,2-.53,2.93-.09,3.35.42A4.55,4.55,0,0,1,16.32,27.19Z"/><path class="cls-6" d="M32.71,23.5c-1,1.93-.59,4.15.95,4.95s3.59-.11,4.6-2.05.59-4.15-.94-4.95S33.72,21.57,32.71,23.5Z"/><path class="cls-7" d="M33.6,27.19a1.66,1.66,0,0,1,0-.22l0,.14a2.82,2.82,0,0,1,.17-1,4.69,4.69,0,0,1,3.86-3.6,10,10,0,0,0-3.12,2.82c1.1-.45,2.8.5,2.8.5-2-.53-2.93-.09-3.35.42A4.55,4.55,0,0,0,33.6,27.19Z"/><path class="cls-9" d="M22.14,12.5a6.47,6.47,0,0,0-6.48,6.41l-.07,6.18c0,5.65,4.2,10.23,9.37,10.23s9.36-4.58,9.36-10.23V18.54c0-3.34-2.31-7.63-5.64-7.63Z"/><path class="cls-10" d="M22.14,12.5a6.47,6.47,0,0,0-6.48,6.41l-.07,6.18c0,5.65,4.2,10.23,9.37,10.23s9.36-4.58,9.36-10.23V18.54c0-3.34-2.31-7.63-5.64-7.63Z"/><path class="cls-11" d="M25,33.94a10.81,10.81,0,0,1-7.9-3.37A9.21,9.21,0,0,0,25,35.32a9.21,9.21,0,0,0,7.9-4.75A10.83,10.83,0,0,1,25,33.94Z"/><path class="cls-12" d="M22.92,29.42a4.09,4.09,0,0,0,3.57.33,2.12,2.12,0,0,1-1.83.92A2,2,0,0,1,22.92,29.42Z"/><path class="cls-13" d="M29.78,22.39c0,.74-.25,1.33-.56,1.33s-.55-.59-.55-1.33.25-1.33.55-1.33S29.78,21.66,29.78,22.39Z"/><path class="cls-3" d="M31.84,20.94c.07,0-3-2-4.91-1.92,0,0,.33-2,2.85-1.06A2.85,2.85,0,0,1,31.84,20.94Z"/><path class="cls-13" d="M20.14,22.39c0,.74.25,1.33.55,1.33s.56-.59.56-1.33-.25-1.33-.56-1.33S20.14,21.66,20.14,22.39Z"/><path class="cls-3" d="M17.8,20.94c-.08,0,3-2,4.9-1.92,0,0,0-2.23-2.56-1.32A3.56,3.56,0,0,0,17.8,20.94Z"/><path class="cls-7" d="M19.36,26.91l-.1,0a.24.24,0,0,1-.12-.33L19.92,25a.25.25,0,0,1,.44.22l-.78,1.6A.24.24,0,0,1,19.36,26.91Z"/><path class="cls-7" d="M17.81,26.91l-.11,0a.25.25,0,0,1-.11-.33L18.36,25a.25.25,0,0,1,.33-.11.24.24,0,0,1,.12.33L18,26.77A.24.24,0,0,1,17.81,26.91Z"/><path class="cls-7" d="M30.41,26.91a.24.24,0,0,1-.22-.14l-.78-1.6a.25.25,0,0,1,.44-.22l.78,1.61a.24.24,0,0,1-.12.33Z"/><path class="cls-7" d="M23.43,26.1c0,.64.68,1.15,1.53,1.15s1.53-.51,1.53-1.15a1.54,1.54,0,0,0-3.06,0Z"/><path class="cls-7" d="M32,26.91a.24.24,0,0,1-.22-.14L31,25.17a.24.24,0,0,1,.12-.33.25.25,0,0,1,.33.11l.77,1.61a.25.25,0,0,1-.11.33Z"/><path class="cls-7" d="M22.76,28.7l-.32-.23a.26.26,0,1,1,.33-.41c.09.07,2.2,1.72,3.7.22a.26.26,0,0,1,.38,0,.27.27,0,0,1,0,.37C25.53,30,23.75,29.35,22.76,28.7Z"/><path class="cls-3" d="M35.28,15.89,30.67,8.61,19.53,11.72l-6,6.69a18.39,18.39,0,0,0,2,1.26s.33-3.15,7.54-3.23c4.73-.06,6.3-2.8,6.92-5,.13,2.58.23,5.3,1.88,6.54a3.58,3.58,0,0,0,3.35.64Z"/><path class="cls-14" d="M25,41.5l-3.18,1.6a.79.79,0,0,1-1.14-.7V39.2a.79.79,0,0,1,1.14-.7L25,40.1a.79.79,0,0,1,.43.7h0A.76.76,0,0,1,25,41.5Z"/><path class="cls-14" d="M25.42,41.5l3.19,1.6a.78.78,0,0,0,1.13-.7V39.2a.78.78,0,0,0-1.13-.7l-3.19,1.6a.81.81,0,0,0-.43.7h0A.78.78,0,0,0,25.42,41.5Z"/><path class="cls-14" d="M25.2,42.28a1.54,1.54,0,1,1,1.53-1.53A1.53,1.53,0,0,1,25.2,42.28Z"/><circle class="cls-15" cx="19.5" cy="23.61" r="3.87"/><path class="cls-16" d="M23.08,22.11l-5.94,4.57a3.87,3.87,0,0,0,6.24-3.07A4,4,0,0,0,23.08,22.11Z"/><path class="cls-16" d="M19.77,19.75l-3.91,2.56a3.74,3.74,0,0,0-.23,1.3,3.29,3.29,0,0,0,0,.45l5.4-4A3.94,3.94,0,0,0,19.77,19.75Z"/><path class="cls-17" d="M19.5,19.74a3.88,3.88,0,1,1-3.87,3.87,3.88,3.88,0,0,1,3.87-3.87m0-.34a4.21,4.21,0,1,0,4.21,4.21A4.21,4.21,0,0,0,19.5,19.4Z"/><path class="cls-15" d="M34.29,23.61a3.88,3.88,0,1,1-3.87-3.87A3.88,3.88,0,0,1,34.29,23.61Z"/><path class="cls-16" d="M32.59,20.41l-5.27,5.52a3.77,3.77,0,0,0,1.81,1.33l4.94-4.94A3.85,3.85,0,0,0,32.59,20.41Z"/><path class="cls-17" d="M30.42,19.74a3.88,3.88,0,1,1-3.88,3.87,3.87,3.87,0,0,1,3.88-3.87m0-.34a4.21,4.21,0,1,0,4.21,4.21,4.22,4.22,0,0,0-4.21-4.21Z"/><path class="cls-17" d="M23.49,22.88l-.28-.3a3,3,0,0,1,3.38-.26l-.2.36A2.55,2.55,0,0,0,23.49,22.88Z"/></g></g></g></svg>