<svg xmlns="http://www.w3.org/2000/svg" xmlns:xlink="http://www.w3.org/1999/xlink" viewBox="0 0 50 50"><defs><style>.cls-1{isolation:isolate;}.cls-2{fill:#cbecf3;}.cls-3{fill:#401f43;}.cls-4{fill:#66326b;}.cls-5{fill:#9a69c1;}.cls-11,.cls-6{fill:#fc6d8b;}.cls-7{fill:#fc4e73;}.cls-8{fill:#fc4269;}.cls-13,.cls-9{fill:#f0a09f;}.cls-10,.cls-12{opacity:0.45;}.cls-10{fill:url(#Degradado_sin_nombre_2);}.cls-11{opacity:0.59;}.cls-12{fill:url(#Degradado_sin_nombre_2-2);}.cls-13{opacity:0.49;mix-blend-mode:multiply;}.cls-14{fill:#ffbbba;}.cls-15{fill:#fc6283;}.cls-16{fill:#25110d;}.cls-17{fill:#230f0b;}.cls-18{fill:#e8132c;}.cls-19{fill:#221124;}</style><linearGradient id="Degradado_sin_nombre_2" x1="25.3" y1="3.42" x2="25.03" y2="26.18" gradientUnits="userSpaceOnUse"><stop offset="0" stop-color="#ff2441"/><stop offset="0.21" stop-color="#ff2441" stop-opacity="0.79"/><stop offset="0.89" stop-color="#ff2441" stop-opacity="0"/></linearGradient><linearGradient id="Degradado_sin_nombre_2-2" x1="25.32" y1="9.59" x2="24.99" y2="27" xlink:href="#Degradado_sin_nombre_2"/></defs><g class="cls-1"><g id="Layer_2" data-name="Layer 2"><g id="OBJECTS"><circle class="cls-2" cx="25" cy="25" r="25"/><path class="cls-3" d="M39.44,22.76c-.66-.12-1.45-.29-1.74-.9a2.8,2.8,0,0,1,.16-2.28c1.67-3,1.71-7.25-.66-9.39-1.44-1.3-3.44-1.61-5.47-1.64,0-.11,0-.21,0-.29a4.91,4.91,0,0,0-.49-2.1,2.2,2.2,0,0,0-2.44-.93c-.67.19-1.39,1.37-2,1.31-.4,0-1.26-1.5-1.6-1.78A3.76,3.76,0,0,0,23,3.9h0s-3.35-.73-9.9,4.33a12.34,12.34,0,0,0-3.6,3.89h0a3.77,3.77,0,0,0,.59,4.46,4.73,4.73,0,0,1,1.08,1.93,4.37,4.37,0,0,1-1.65,4.34,8.27,8.27,0,0,0-2.16,3,6.52,6.52,0,0,0-.19,2.53,10.76,10.76,0,0,0,3.27,6.93c1.71,1.44,3.76,1.47,5.13.09a6.36,6.36,0,0,0,2.89,4.9,4.78,4.78,0,0,0,.83.33h0a18.65,18.65,0,0,0,5.72.71c3.82,0,8.63-.54,11.08-2.49h0a6,6,0,0,0,2.26-5,3.31,3.31,0,0,1,.23-1.9,1.66,1.66,0,0,1,.74-.55,6.35,6.35,0,0,0,3.09-2.78,4.44,4.44,0,0,0,.5-2.11A3.84,3.84,0,0,0,39.44,22.76Z"/><path class="cls-4" d="M25.2,4.76A3.76,3.76,0,0,0,23,3.9h0s-3.35-.73-9.9,4.33a12.34,12.34,0,0,0-3.6,3.89h0a3.8,3.8,0,0,0-.45,1.41,23.33,23.33,0,0,1,7.55-6.41,17.9,17.9,0,0,1,9-1.82A4.47,4.47,0,0,0,25.2,4.76Z"/><path class="cls-4" d="M38.21,18.86c1.31-2.95,1.18-6.7-1-8.67-1.44-1.3-3.44-1.61-5.47-1.64C31.73,8.55,39.93,10.24,38.21,18.86Z"/><path class="cls-5" d="M34.59,40C29.26,37.84,27.5,35.16,28,31.3H22.08c.46,3.86-1.3,6.54-6.64,8.69s-6,4.51-6,4.51A24,24,0,0,0,25,50a24.64,24.64,0,0,0,15.61-5.5S39.93,42.15,34.59,40Z"/><path class="cls-6" d="M20.25,37.08a5,5,0,0,0,9.54,0A6.55,6.55,0,0,1,28,31.3H22.08A6.55,6.55,0,0,1,20.25,37.08Z"/><path class="cls-7" d="M25,37.39a7.81,7.81,0,0,0,4-1.24A6.68,6.68,0,0,1,28,31.3H22.08a6.68,6.68,0,0,1-1,4.84A7.83,7.83,0,0,0,25,37.39Z"/><path class="cls-6" d="M17.49,24.3c1,1.89.57,4.06-.92,4.84s-3.5-.11-4.49-2-.57-4.05.92-4.84S16.5,22.42,17.49,24.3Z"/><path class="cls-8" d="M16.62,27.91c0-.08,0-.14,0-.22s0,.1,0,.13a2.72,2.72,0,0,0-.17-.94,4.55,4.55,0,0,0-3.75-3.52,9.68,9.68,0,0,1,3,2.76c-1.07-.44-2.72.49-2.72.49,2-.52,2.85-.09,3.26.41A4.44,4.44,0,0,1,16.62,27.91Z"/><path class="cls-3" d="M15.92,26.61a7.27,7.27,0,0,1-1.26-7.35l3.17-.59-.28,7.41Z"/><path class="cls-6" d="M32.58,24.3c-1,1.89-.57,4.06.92,4.84S37,29,38,27.14s.57-4.05-.92-4.84S33.57,22.42,32.58,24.3Z"/><path class="cls-8" d="M33.45,27.91c0-.08,0-.14,0-.22s0,.1,0,.13a3,3,0,0,1,.16-.94,4.57,4.57,0,0,1,3.76-3.52,9.68,9.68,0,0,0-3,2.76c1.07-.44,2.72.49,2.72.49-2-.52-2.86-.09-3.27.41A4,4,0,0,0,33.45,27.91Z"/><path class="cls-3" d="M34,26.61a7.25,7.25,0,0,0,1.25-7.35L32,18.67l.28,7.41Z"/><path class="cls-9" d="M22.29,13.56A6.31,6.31,0,0,0,16,19.82l-.06,6c0,5.51,5,10.29,9.11,10.29s9.12-4.78,9.12-10.29v-6.4a5.91,5.91,0,0,0-5.9-5.9Z"/><path class="cls-10" d="M22.29,13.56A6.31,6.31,0,0,0,16,19.82l-.06,6c0,5.51,5,10.29,9.11,10.29s9.12-4.78,9.12-10.29v-6.4a5.91,5.91,0,0,0-5.9-5.9Z"/><path class="cls-11" d="M22.57,30.78a3,3,0,0,0,3.07.58,1.53,1.53,0,0,1-1.91.88A1.55,1.55,0,0,1,22.57,30.78Z"/><path class="cls-12" d="M22.29,13.56A6.31,6.31,0,0,0,16,19.82l-.06,6c0,5.51,5,10.29,9.11,10.29s9.12-4.78,9.12-10.29v-6.4a5.91,5.91,0,0,0-5.9-5.9Z"/><path class="cls-13" d="M34.14,19.46a5.91,5.91,0,0,0-5.9-5.9H22.29A6.31,6.31,0,0,0,16,19.82l-.05,4.52h0a4.12,4.12,0,0,0,2.54-1.13l.11-.09a5.56,5.56,0,0,0,1.93-3.44,8.11,8.11,0,0,0,5.89,2.19c5.44.07,7.42,2.15,7.69,3.21,0,0,0,0,0,0Z"/><path class="cls-14" d="M25,34.53c-3.09,0-6.59-2.21-8.52-5.36,1.44,4,5.24,7,8.52,7s7.09-3,8.53-7C31.63,32.31,28.12,34.53,25,34.53Z"/><path class="cls-3" d="M34.15,12.21C31.48,8.06,20,3.81,14.66,15.15c-.86,1.83,1.29,8,1.29,8,.69,0,1.17-.39,1.93-1,1.6-1.21,1.7-3.86,1.83-6.39.6,2.16,2.13,4.84,6.74,4.89,7,.09,7.7,3.16,7.7,3.16S37.67,17.67,34.15,12.21Z"/><path class="cls-15" d="M26.34,26A1.46,1.46,0,0,1,25,27.57,1.45,1.45,0,0,1,23.73,26c0-.86.58-3.16,1.3-3.16S26.34,25.14,26.34,26Z"/><path class="cls-16" d="M29.41,23.72c-.65.29-1.28.31-1.4,0s.3-.73.95-1,1.28-.32,1.4-.05S30.06,23.42,29.41,23.72Z"/><path class="cls-16" d="M20.68,23.72c.66.28,1.29.27,1.4,0s-.33-.72-1-1-1.29-.27-1.41,0S20,23.45,20.68,23.72Z"/><path class="cls-15" d="M19.59,27.63a.2.2,0,0,1-.11,0,.24.24,0,0,1-.11-.32l.76-1.57a.23.23,0,0,1,.32-.11.26.26,0,0,1,.11.32L19.8,27.5A.24.24,0,0,1,19.59,27.63Z"/><path class="cls-15" d="M18.07,27.63a.18.18,0,0,1-.1,0,.24.24,0,0,1-.11-.32l.75-1.57a.24.24,0,0,1,.32-.11.25.25,0,0,1,.12.32l-.76,1.57A.25.25,0,0,1,18.07,27.63Z"/><path class="cls-15" d="M30.34,27.63a.26.26,0,0,1-.22-.13l-.75-1.57a.24.24,0,0,1,.43-.21l.76,1.57a.25.25,0,0,1-.12.32A.18.18,0,0,1,30.34,27.63Z"/><path class="cls-6" d="M31.85,27.63a.23.23,0,0,1-.21-.13l-.76-1.57a.24.24,0,0,1,.43-.21l.76,1.57a.25.25,0,0,1-.12.32A.16.16,0,0,1,31.85,27.63Z"/><path class="cls-17" d="M22.39,27.61a2.66,2.66,0,0,0-.15.9,2.54,2.54,0,0,0,2.5,2.58A2.51,2.51,0,0,0,27.19,29Z"/><path class="cls-18" d="M24.74,31.09a2.47,2.47,0,0,0,1.18-.31,2.55,2.55,0,0,0-2.54-2,2.79,2.79,0,0,0-1.09.22A2.53,2.53,0,0,0,24.74,31.09Z"/><path class="cls-19" d="M31.73,21.8c.07,0-2.92-1.94-4.77-1.87,0,0,.2-2.1,2.65-1.22A3.14,3.14,0,0,1,31.73,21.8Z"/><path class="cls-19" d="M18.06,21.8c-.07,0,2.93-1.94,4.78-1.87,0,0,0-2.06-2.5-1.17A3.38,3.38,0,0,0,18.06,21.8Z"/></g></g></g></svg>