<svg xmlns="http://www.w3.org/2000/svg" xmlns:xlink="http://www.w3.org/1999/xlink" viewBox="0 0 50 50"><defs><style>.cls-1{fill:#cbecf3;}.cls-2{fill:#252d47;}.cls-3{fill:#4a598d;}.cls-4{fill:#9a69c1;}.cls-5{fill:#29c14a;}.cls-6{fill:#ac4725;}.cls-7{fill:#9c320e;}.cls-8{fill:#852200;}.cls-9{fill:#cc5c37;}.cls-10{opacity:0.55;}.cls-11{fill:url(#Degradado_sin_nombre_8);}.cls-12{fill:#de663e;}.cls-13,.cls-17{fill:#9c2800;}.cls-14{fill:#230d09;}.cls-15{fill:#e81a49;}.cls-16{fill:#240911;}.cls-17{opacity:0.49;}</style><linearGradient id="Degradado_sin_nombre_8" x1="26.34" y1="2.26" x2="25.2" y2="24.34" gradientUnits="userSpaceOnUse"><stop offset="0.44" stop-color="#e30000" stop-opacity="0.53"/><stop offset="1" stop-color="#e30000" stop-opacity="0"/></linearGradient></defs><g id="Layer_2" data-name="Layer 2"><g id="OBJECTS"><circle class="cls-1" cx="25" cy="25" r="25"/><path class="cls-2" d="M12.38,21.79A39.22,39.22,0,0,1,16,25.07H35.77c.11-.44.19-.83.22-1a4.49,4.49,0,0,1,1.94-2.37,3.82,3.82,0,0,0,1.49-5.32,3.49,3.49,0,0,0-.88-1,1,1,0,0,1-.3-1.23,2.51,2.51,0,0,0-.37-2.41,2.38,2.38,0,0,0-2.56-.93c-2,.27-1.4-1.9-1.37-3.5,0-2.33-4-4.07-8.14-.12,0,0-.67,1-2.84.35s-6.6-2-9.75.67-.05,5.48-1.14,7.63S10,19.94,12.38,21.79Z"/><path class="cls-3" d="M21.19,7c-2.33-.56-5.54-.92-8,1.14a3.84,3.84,0,0,0-1.31,4.22h0S13.12,6.27,21.19,7Z"/><path class="cls-3" d="M33.88,8.2v0c0-.31,0-.63,0-.92,0-1.89-2.61-3.39-5.82-1.79h0S33.24,4.7,33.88,8.2Z"/><path class="cls-3" d="M35.63,10.72a3.7,3.7,0,0,1,2.67,3.14,2.46,2.46,0,0,0-.43-2.17A2.33,2.33,0,0,0,35.63,10.72Z"/><path class="cls-4" d="M35,39.45c-5.56-2.18-7.39-4.9-6.91-8.8H21.94c.48,3.9-1.35,6.62-6.91,8.8S8.72,44,8.72,44s5.54,6,16.52,6a25,25,0,0,0,16-6S40.54,41.63,35,39.45Z"/><path class="cls-5" d="M29.87,36.52V36.4a8,8,0,0,1-.62-.7h0v.82A4.2,4.2,0,0,1,25,40.68h0a4.2,4.2,0,0,1-4.25-4.16V35.7h0a8,8,0,0,1-.62.7v.12a4.87,4.87,0,0,0,9.74,0Z"/><path class="cls-6" d="M29.25,35.7a6.62,6.62,0,0,1-1.19-5.05H21.94a6.62,6.62,0,0,1-1.19,5.05v.82A4.2,4.2,0,0,0,25,40.68h0a4.2,4.2,0,0,0,4.25-4.16Z"/><path class="cls-7" d="M20.75,35.83a18,18,0,0,0,3.93.66,16,16,0,0,0,4.57-.3V35.7a6.62,6.62,0,0,1-1.19-5.05H21.94a6.62,6.62,0,0,1-1.19,5.05Z"/><path class="cls-6" d="M17.57,23.33c1.24,1.8,1.06,4-.4,5s-3.65.28-4.89-1.52-1.06-4,.4-5S16.33,21.54,17.57,23.33Z"/><path class="cls-8" d="M17.09,27.08,17,26.86c0,.05,0,.1,0,.13a2.62,2.62,0,0,0-.28-.93,4.78,4.78,0,0,0-4.31-3.14A10.25,10.25,0,0,1,16,25.37c-1.16-.32-2.77.8-2.77.8,2-.75,3-.41,3.44,0A4.67,4.67,0,0,1,17.09,27.08Z"/><path class="cls-6" d="M32.13,24.31c-.81,2-.13,4.16,1.51,4.79s3.63-.51,4.44-2.53.12-4.17-1.52-4.79S32.94,22.29,32.13,24.31Z"/><path class="cls-8" d="M33.44,27.86c0-.08,0-.15,0-.23a.82.82,0,0,0,0,.14,2.67,2.67,0,0,1,.06-1,4.71,4.71,0,0,1,3.5-4A10.14,10.14,0,0,0,34.16,26c1.06-.57,2.89.18,2.89.18-2.1-.3-3,.24-3.35.79A4.29,4.29,0,0,0,33.44,27.86Z"/><path class="cls-2" d="M15.58,26.68s-1.69-6.07-.66-7.72c.53-.85,3.77-1.53,3.77-1.53Z"/><path class="cls-2" d="M34.42,27.08s1.41-5.73.82-9.29l-2.86.42,1.32,8.71Z"/><path class="cls-9" d="M22.43,13.22a6.24,6.24,0,0,0-6.34,6c0,1.52-.08,3-.13,4.54a14.37,14.37,0,0,1-.29,2.35c-1.1,5.64,3,8.59,9,9s10.51-2.4,9.7-8.06a24.62,24.62,0,0,1-.27-3.84c0-1.32,0-2.65.05-4a5.91,5.91,0,0,0-5.84-6Z"/><g class="cls-10"><path class="cls-11" d="M22.43,13.22a6.24,6.24,0,0,0-6.34,6c0,1.52-.08,3-.13,4.54a14.37,14.37,0,0,1-.29,2.35c-1.1,5.64,3,8.59,9,9s10.51-2.4,9.7-8.06a24.62,24.62,0,0,1-.27-3.84c0-1.32,0-2.65.05-4a5.91,5.91,0,0,0-5.84-6Z"/></g><path class="cls-12" d="M24.71,33.86c-4.14-.26-7.43-1.58-8.94-4,1,3.23,4.41,5,9,5.26,4.73.31,8.42-1.29,9.48-4.64C32.59,33,29.07,34.14,24.71,33.86Z"/><path class="cls-13" d="M26.12,25.77a1.42,1.42,0,0,1-1.23,1.6,1.46,1.46,0,0,1-1.3-1.54c0-.85.51-1.91,1.2-1.93S26.08,24.92,26.12,25.77Z"/><path class="cls-13" d="M19.72,27.69l-.09,0a.24.24,0,0,1-.11-.31l.71-1.54a.22.22,0,1,1,.4.19l-.71,1.55A.2.2,0,0,1,19.72,27.69Z"/><path class="cls-13" d="M18.33,27.71a.17.17,0,0,1-.1,0,.22.22,0,0,1-.09-.31l.71-1.53a.22.22,0,0,1,.29-.11.23.23,0,0,1,.1.3l-.71,1.54A.26.26,0,0,1,18.33,27.71Z"/><path class="cls-13" d="M30.28,27.55a.27.27,0,0,1-.23-.14l-.88-1.6a.24.24,0,0,1,.1-.32.25.25,0,0,1,.33.1l.88,1.59a.24.24,0,0,1-.09.34Z"/><path class="cls-13" d="M31.86,27.52a.25.25,0,0,1-.24-.14l-.91-1.6a.25.25,0,0,1,.09-.33.26.26,0,0,1,.34.11l.91,1.6a.23.23,0,0,1-.09.34A.18.18,0,0,1,31.86,27.52Z"/><path class="cls-14" d="M28.52,27.69a3.21,3.21,0,0,1,.06,1.2,3.39,3.39,0,0,1-3.78,2.93,3.34,3.34,0,0,1-2.92-3.07Z"/><path class="cls-15" d="M24.8,31.82a3.36,3.36,0,0,1-1.53-.59A3.44,3.44,0,0,1,27,29.1a3.72,3.72,0,0,1,1.42.47A3.4,3.4,0,0,1,24.8,31.82Z"/><path class="cls-2" d="M31.27,21.67c.07-.05-3-1.7-4.76-1.55,0,0,.31-1.68,2.68-1S31.25,21.69,31.27,21.67Z"/><path class="cls-2" d="M18.41,22.21c-.06,0,2.61-1.87,4.28-1.89,0,0-.26-1.54-2.44-.64S18.43,22.23,18.41,22.21Z"/><path class="cls-16" d="M20.56,23.38c0,.79.3,1.42.65,1.41s.63-.64.62-1.42S21.53,22,21.18,22,20.55,22.6,20.56,23.38Z"/><path class="cls-16" d="M27.87,23.37c0,.78.27,1.42.62,1.42s.64-.63.64-1.41S28.86,22,28.51,22,27.87,22.59,27.87,23.37Z"/><path class="cls-17" d="M25.24,32.32s2.4.17,3.18-1.67a1.65,1.65,0,0,1-.73,1.88A2.46,2.46,0,0,1,25.24,32.32Z"/><path class="cls-2" d="M37.74,18.93c.55-2.07-.71-4.56-2-6.2-1-1.31-3.46-2.1-5-2.52a1.43,1.43,0,0,1-1.12-1.07c-.32,0-.64,0-1,.07-1.27.14-7.78,4.19-7.78,4.19a5.38,5.38,0,0,1,4.18.67A9.59,9.59,0,0,0,29.14,16c1.07.21,2.31-.26,3.22.33,1.57,1-.91,4.42,2.1,4.93a3.6,3.6,0,0,0,1.49.12A3.54,3.54,0,0,0,37.83,20,1.5,1.5,0,0,1,37.74,18.93Z"/></g></g></svg>